<mxfile host="app.diagrams.net" modified="2023-03-27T14:47:58.293Z" agent="Mozilla/5.0 (Macintosh; Intel Mac OS X 10_15_7) AppleWebKit/605.1.15 (KHTML, like Gecko) Version/14.1.2 Safari/605.1.15" etag="2QGTmZR14vtDhyRDUYo9" version="21.1.1" type="github" pages="2">
  <diagram name="main page" id="VTZKAf1ltyL4esYXZAsg">
    <mxGraphModel dx="3553" dy="3115" grid="1" gridSize="10" guides="1" tooltips="1" connect="1" arrows="1" fold="1" page="1" pageScale="1" pageWidth="827" pageHeight="1169" math="0" shadow="0">
      <root>
        <mxCell id="0" />
        <mxCell id="1" parent="0" />
        <mxCell id="wX_MCLOSpyru5hPgQ0eP-4" value="" style="edgeStyle=orthogonalEdgeStyle;rounded=0;orthogonalLoop=1;jettySize=auto;html=1;" parent="1" edge="1">
          <mxGeometry relative="1" as="geometry">
            <mxPoint x="260" y="105" as="sourcePoint" />
          </mxGeometry>
        </mxCell>
        <mxCell id="wX_MCLOSpyru5hPgQ0eP-11" style="edgeStyle=orthogonalEdgeStyle;rounded=0;orthogonalLoop=1;jettySize=auto;html=1;entryX=0.5;entryY=0;entryDx=0;entryDy=0;" parent="1" edge="1">
          <mxGeometry relative="1" as="geometry">
            <mxPoint x="320" y="140" as="sourcePoint" />
          </mxGeometry>
        </mxCell>
        <mxCell id="wX_MCLOSpyru5hPgQ0eP-22" style="edgeStyle=orthogonalEdgeStyle;rounded=0;orthogonalLoop=1;jettySize=auto;html=1;exitX=0.5;exitY=1;exitDx=0;exitDy=0;entryX=0;entryY=0.5;entryDx=0;entryDy=0;dashed=1;" parent="1" edge="1">
          <mxGeometry relative="1" as="geometry">
            <mxPoint x="127.5" y="115" as="sourcePoint" />
          </mxGeometry>
        </mxCell>
        <mxCell id="wX_MCLOSpyru5hPgQ0eP-75" value="&lt;b style=&quot;border-color: var(--border-color);&quot;&gt;&lt;font style=&quot;border-color: var(--border-color); font-size: 19px;&quot;&gt;主要数据处理流程&lt;/font&gt;&lt;/b&gt;" style="swimlane;whiteSpace=wrap;html=1;" parent="1" vertex="1">
          <mxGeometry x="-500" y="-220" width="2068.91" height="1130" as="geometry">
            <mxRectangle x="20" y="-440" width="190" height="40" as="alternateBounds" />
          </mxGeometry>
        </mxCell>
        <mxCell id="SFGpZlkl2txLwvG6TFmr-96" value="" style="group" parent="wX_MCLOSpyru5hPgQ0eP-75" vertex="1" connectable="0">
          <mxGeometry x="298" y="49" width="1958.9099999999999" height="1046" as="geometry" />
        </mxCell>
        <mxCell id="roh6c2qE-MrcPQRFV2aa-217" style="edgeStyle=orthogonalEdgeStyle;rounded=0;orthogonalLoop=1;jettySize=auto;html=1;exitX=0.5;exitY=1;exitDx=0;exitDy=0;entryX=0.5;entryY=0;entryDx=0;entryDy=0;" edge="1" parent="SFGpZlkl2txLwvG6TFmr-96" source="fdz2JXnDWoETyJIV6Ixd-1" target="SFGpZlkl2txLwvG6TFmr-64">
          <mxGeometry relative="1" as="geometry" />
        </mxCell>
        <mxCell id="fdz2JXnDWoETyJIV6Ixd-1" value="测试用例数据" style="swimlane;whiteSpace=wrap;html=1;" parent="SFGpZlkl2txLwvG6TFmr-96" vertex="1">
          <mxGeometry x="1298" y="-14" width="310" height="229" as="geometry">
            <mxRectangle x="1320" y="1" width="110" height="30" as="alternateBounds" />
          </mxGeometry>
        </mxCell>
        <mxCell id="fdz2JXnDWoETyJIV6Ixd-64" value="" style="group" parent="fdz2JXnDWoETyJIV6Ixd-1" vertex="1" connectable="0">
          <mxGeometry x="23" y="32.5" width="383.5" height="281.5" as="geometry" />
        </mxCell>
        <mxCell id="fdz2JXnDWoETyJIV6Ixd-3" value="SILVA&lt;br&gt;分类物种" style="rounded=0;whiteSpace=wrap;html=1;fontSize=12;" parent="fdz2JXnDWoETyJIV6Ixd-64" vertex="1">
          <mxGeometry x="-3" y="11.75" width="121.75" height="37.5" as="geometry" />
        </mxCell>
        <mxCell id="roh6c2qE-MrcPQRFV2aa-215" value="" style="edgeStyle=orthogonalEdgeStyle;rounded=0;orthogonalLoop=1;jettySize=auto;html=1;" edge="1" parent="fdz2JXnDWoETyJIV6Ixd-64" source="fdz2JXnDWoETyJIV6Ixd-55" target="fdz2JXnDWoETyJIV6Ixd-3">
          <mxGeometry relative="1" as="geometry" />
        </mxCell>
        <mxCell id="fdz2JXnDWoETyJIV6Ixd-55" value="Refseq&lt;br&gt;分类物种" style="rounded=0;whiteSpace=wrap;html=1;fontSize=12;" parent="fdz2JXnDWoETyJIV6Ixd-64" vertex="1">
          <mxGeometry x="-3" y="54.75" width="121.75" height="37.5" as="geometry" />
        </mxCell>
        <mxCell id="fdz2JXnDWoETyJIV6Ixd-57" value="Greengene2013&lt;br style=&quot;font-size: 12px;&quot;&gt;分类物种" style="rounded=0;whiteSpace=wrap;html=1;fontSize=12;" parent="fdz2JXnDWoETyJIV6Ixd-64" vertex="1">
          <mxGeometry x="-3" y="97.75" width="121.75" height="37.5" as="geometry" />
        </mxCell>
        <mxCell id="fdz2JXnDWoETyJIV6Ixd-58" value="Greengene2022&lt;br style=&quot;font-size: 12px;&quot;&gt;分类物种" style="rounded=0;whiteSpace=wrap;html=1;fontSize=12;" parent="fdz2JXnDWoETyJIV6Ixd-64" vertex="1">
          <mxGeometry x="-3" y="140.5" width="121.75" height="37.5" as="geometry" />
        </mxCell>
        <mxCell id="fdz2JXnDWoETyJIV6Ixd-84" style="edgeStyle=orthogonalEdgeStyle;rounded=0;orthogonalLoop=1;jettySize=auto;html=1;fontSize=12;startSize=8;endSize=8;entryX=0.5;entryY=0;entryDx=0;entryDy=0;" parent="fdz2JXnDWoETyJIV6Ixd-64" target="fdz2JXnDWoETyJIV6Ixd-99" edge="1">
          <mxGeometry relative="1" as="geometry">
            <mxPoint x="197" y="49.5" as="targetPoint" />
            <mxPoint x="137" y="36.5" as="sourcePoint" />
          </mxGeometry>
        </mxCell>
        <mxCell id="fdz2JXnDWoETyJIV6Ixd-85" value="&lt;font style=&quot;font-size: 12px;&quot;&gt;跨库共名物种&lt;/font&gt;" style="edgeLabel;html=1;align=center;verticalAlign=middle;resizable=0;points=[];fontSize=16;" parent="fdz2JXnDWoETyJIV6Ixd-84" vertex="1" connectable="0">
          <mxGeometry x="0.0104" y="-1" relative="1" as="geometry">
            <mxPoint x="-24" y="-3" as="offset" />
          </mxGeometry>
        </mxCell>
        <mxCell id="fdz2JXnDWoETyJIV6Ixd-59" value="" style="shape=curlyBracket;whiteSpace=wrap;html=1;rounded=1;flipH=1;labelPosition=right;verticalLabelPosition=middle;align=left;verticalAlign=middle;fontSize=16;rotation=0;size=0;" parent="fdz2JXnDWoETyJIV6Ixd-64" vertex="1">
          <mxGeometry x="127" y="18" width="7.25" height="160" as="geometry" />
        </mxCell>
        <mxCell id="fdz2JXnDWoETyJIV6Ixd-65" value="&lt;font style=&quot;font-size: 12px;&quot;&gt;Ginder&lt;br&gt;模拟扩增子测序&lt;/font&gt;" style="rounded=0;whiteSpace=wrap;html=1;fontSize=13;" parent="fdz2JXnDWoETyJIV6Ixd-64" vertex="1">
          <mxGeometry x="176" y="129" width="90" height="37.5" as="geometry" />
        </mxCell>
        <mxCell id="fdz2JXnDWoETyJIV6Ixd-78" style="edgeStyle=none;curved=1;rounded=0;orthogonalLoop=1;jettySize=auto;html=1;entryX=0;entryY=0.5;entryDx=0;entryDy=0;fontSize=12;startSize=8;endSize=8;" parent="fdz2JXnDWoETyJIV6Ixd-64" edge="1">
          <mxGeometry relative="1" as="geometry">
            <mxPoint x="95.99999999997272" y="226.25" as="sourcePoint" />
          </mxGeometry>
        </mxCell>
        <mxCell id="fdz2JXnDWoETyJIV6Ixd-100" style="edgeStyle=none;curved=1;rounded=0;orthogonalLoop=1;jettySize=auto;html=1;exitX=0.5;exitY=1;exitDx=0;exitDy=0;entryX=0.5;entryY=0;entryDx=0;entryDy=0;fontSize=12;startSize=8;endSize=8;" parent="fdz2JXnDWoETyJIV6Ixd-64" source="fdz2JXnDWoETyJIV6Ixd-99" target="fdz2JXnDWoETyJIV6Ixd-65" edge="1">
          <mxGeometry relative="1" as="geometry" />
        </mxCell>
        <mxCell id="fdz2JXnDWoETyJIV6Ixd-99" value="&lt;span style=&quot;font-size: 12px;&quot;&gt;对应16S全长&lt;br&gt;序列（取最长）&lt;/span&gt;" style="rounded=0;whiteSpace=wrap;html=1;fontSize=13;" parent="fdz2JXnDWoETyJIV6Ixd-64" vertex="1">
          <mxGeometry x="176" y="79.25" width="90" height="37.5" as="geometry" />
        </mxCell>
        <mxCell id="fdz2JXnDWoETyJIV6Ixd-73" value="16s数据预处理" style="swimlane;whiteSpace=wrap;html=1;fontSize=12;" parent="SFGpZlkl2txLwvG6TFmr-96" vertex="1">
          <mxGeometry x="1285" y="396" width="336" height="544" as="geometry">
            <mxRectangle x="1320" y="396" width="120" height="30" as="alternateBounds" />
          </mxGeometry>
        </mxCell>
        <mxCell id="fdz2JXnDWoETyJIV6Ixd-86" value="16S序列质控" style="rounded=0;whiteSpace=wrap;html=1;fontSize=12;" parent="fdz2JXnDWoETyJIV6Ixd-73" vertex="1">
          <mxGeometry x="134" y="39.5" width="83" height="29" as="geometry" />
        </mxCell>
        <mxCell id="SFGpZlkl2txLwvG6TFmr-70" value="合并双端序列" style="rounded=0;whiteSpace=wrap;html=1;fontSize=12;" parent="fdz2JXnDWoETyJIV6Ixd-73" vertex="1">
          <mxGeometry x="33" y="92" width="80" height="26" as="geometry" />
        </mxCell>
        <mxCell id="SFGpZlkl2txLwvG6TFmr-69" value="信号分离（Demultiplex）" style="rounded=0;whiteSpace=wrap;html=1;fontSize=12;" parent="fdz2JXnDWoETyJIV6Ixd-73" vertex="1">
          <mxGeometry x="124" y="139.5" width="103" height="39" as="geometry" />
        </mxCell>
        <mxCell id="SFGpZlkl2txLwvG6TFmr-75" value="聚类" style="rounded=0;whiteSpace=wrap;html=1;fontSize=12;" parent="fdz2JXnDWoETyJIV6Ixd-73" vertex="1">
          <mxGeometry x="91" y="249" width="67" height="29" as="geometry" />
        </mxCell>
        <mxCell id="SFGpZlkl2txLwvG6TFmr-79" value="去嵌合去冗余" style="rounded=0;whiteSpace=wrap;html=1;fontSize=12;" parent="fdz2JXnDWoETyJIV6Ixd-73" vertex="1">
          <mxGeometry x="125" y="320" width="105" height="29" as="geometry" />
        </mxCell>
        <mxCell id="SFGpZlkl2txLwvG6TFmr-84" value="特征序列" style="rounded=0;whiteSpace=wrap;html=1;fontSize=12;" parent="fdz2JXnDWoETyJIV6Ixd-73" vertex="1">
          <mxGeometry x="91" y="399" width="67" height="29" as="geometry" />
        </mxCell>
        <mxCell id="SFGpZlkl2txLwvG6TFmr-90" value="筛选去除低丰度序列" style="rounded=0;whiteSpace=wrap;html=1;fontSize=12;" parent="fdz2JXnDWoETyJIV6Ixd-73" vertex="1">
          <mxGeometry x="74" y="455" width="206" height="29" as="geometry" />
        </mxCell>
        <mxCell id="SFGpZlkl2txLwvG6TFmr-85" value="特征丰度谱" style="rounded=0;whiteSpace=wrap;html=1;fontSize=12;" parent="fdz2JXnDWoETyJIV6Ixd-73" vertex="1">
          <mxGeometry x="196" y="399" width="67" height="29" as="geometry" />
        </mxCell>
        <mxCell id="SFGpZlkl2txLwvG6TFmr-76" value="去噪" style="rounded=0;whiteSpace=wrap;html=1;fontSize=12;" parent="fdz2JXnDWoETyJIV6Ixd-73" vertex="1">
          <mxGeometry x="198" y="249" width="64" height="29" as="geometry" />
        </mxCell>
        <mxCell id="SFGpZlkl2txLwvG6TFmr-71" style="edgeStyle=orthogonalEdgeStyle;rounded=0;orthogonalLoop=1;jettySize=auto;html=1;exitX=0;exitY=0.5;exitDx=0;exitDy=0;entryX=0.5;entryY=0;entryDx=0;entryDy=0;dashed=1;" parent="fdz2JXnDWoETyJIV6Ixd-73" source="fdz2JXnDWoETyJIV6Ixd-86" target="SFGpZlkl2txLwvG6TFmr-70" edge="1">
          <mxGeometry relative="1" as="geometry" />
        </mxCell>
        <mxCell id="SFGpZlkl2txLwvG6TFmr-73" style="edgeStyle=orthogonalEdgeStyle;rounded=0;orthogonalLoop=1;jettySize=auto;html=1;exitX=0.5;exitY=1;exitDx=0;exitDy=0;entryX=0.5;entryY=0;entryDx=0;entryDy=0;" parent="fdz2JXnDWoETyJIV6Ixd-73" source="fdz2JXnDWoETyJIV6Ixd-86" target="SFGpZlkl2txLwvG6TFmr-69" edge="1">
          <mxGeometry relative="1" as="geometry" />
        </mxCell>
        <mxCell id="SFGpZlkl2txLwvG6TFmr-72" style="edgeStyle=orthogonalEdgeStyle;rounded=0;orthogonalLoop=1;jettySize=auto;html=1;exitX=0.5;exitY=1;exitDx=0;exitDy=0;entryX=0;entryY=0.5;entryDx=0;entryDy=0;dashed=1;" parent="fdz2JXnDWoETyJIV6Ixd-73" source="SFGpZlkl2txLwvG6TFmr-70" target="SFGpZlkl2txLwvG6TFmr-69" edge="1">
          <mxGeometry relative="1" as="geometry" />
        </mxCell>
        <mxCell id="SFGpZlkl2txLwvG6TFmr-77" style="edgeStyle=orthogonalEdgeStyle;rounded=0;orthogonalLoop=1;jettySize=auto;html=1;exitX=0.5;exitY=1;exitDx=0;exitDy=0;" parent="fdz2JXnDWoETyJIV6Ixd-73" source="SFGpZlkl2txLwvG6TFmr-69" target="SFGpZlkl2txLwvG6TFmr-75" edge="1">
          <mxGeometry relative="1" as="geometry" />
        </mxCell>
        <mxCell id="SFGpZlkl2txLwvG6TFmr-83" style="edgeStyle=orthogonalEdgeStyle;rounded=0;orthogonalLoop=1;jettySize=auto;html=1;exitX=0.5;exitY=1;exitDx=0;exitDy=0;entryX=0.5;entryY=0;entryDx=0;entryDy=0;" parent="fdz2JXnDWoETyJIV6Ixd-73" source="SFGpZlkl2txLwvG6TFmr-75" target="SFGpZlkl2txLwvG6TFmr-79" edge="1">
          <mxGeometry relative="1" as="geometry" />
        </mxCell>
        <mxCell id="SFGpZlkl2txLwvG6TFmr-86" style="edgeStyle=orthogonalEdgeStyle;rounded=0;orthogonalLoop=1;jettySize=auto;html=1;exitX=0.5;exitY=1;exitDx=0;exitDy=0;" parent="fdz2JXnDWoETyJIV6Ixd-73" source="SFGpZlkl2txLwvG6TFmr-79" target="SFGpZlkl2txLwvG6TFmr-84" edge="1">
          <mxGeometry relative="1" as="geometry" />
        </mxCell>
        <mxCell id="SFGpZlkl2txLwvG6TFmr-93" style="edgeStyle=orthogonalEdgeStyle;rounded=0;orthogonalLoop=1;jettySize=auto;html=1;exitX=0.5;exitY=1;exitDx=0;exitDy=0;entryX=0.25;entryY=0;entryDx=0;entryDy=0;" parent="fdz2JXnDWoETyJIV6Ixd-73" source="SFGpZlkl2txLwvG6TFmr-84" target="SFGpZlkl2txLwvG6TFmr-90" edge="1">
          <mxGeometry relative="1" as="geometry" />
        </mxCell>
        <mxCell id="SFGpZlkl2txLwvG6TFmr-87" style="edgeStyle=orthogonalEdgeStyle;rounded=0;orthogonalLoop=1;jettySize=auto;html=1;exitX=0.5;exitY=1;exitDx=0;exitDy=0;entryX=0.5;entryY=0;entryDx=0;entryDy=0;" parent="fdz2JXnDWoETyJIV6Ixd-73" source="SFGpZlkl2txLwvG6TFmr-79" target="SFGpZlkl2txLwvG6TFmr-85" edge="1">
          <mxGeometry relative="1" as="geometry" />
        </mxCell>
        <mxCell id="SFGpZlkl2txLwvG6TFmr-94" style="edgeStyle=orthogonalEdgeStyle;rounded=0;orthogonalLoop=1;jettySize=auto;html=1;exitX=0.5;exitY=1;exitDx=0;exitDy=0;entryX=0.75;entryY=0;entryDx=0;entryDy=0;" parent="fdz2JXnDWoETyJIV6Ixd-73" source="SFGpZlkl2txLwvG6TFmr-85" target="SFGpZlkl2txLwvG6TFmr-90" edge="1">
          <mxGeometry relative="1" as="geometry" />
        </mxCell>
        <mxCell id="SFGpZlkl2txLwvG6TFmr-78" style="edgeStyle=orthogonalEdgeStyle;rounded=0;orthogonalLoop=1;jettySize=auto;html=1;exitX=0.5;exitY=1;exitDx=0;exitDy=0;entryX=0.5;entryY=0;entryDx=0;entryDy=0;" parent="fdz2JXnDWoETyJIV6Ixd-73" source="SFGpZlkl2txLwvG6TFmr-69" target="SFGpZlkl2txLwvG6TFmr-76" edge="1">
          <mxGeometry relative="1" as="geometry" />
        </mxCell>
        <mxCell id="SFGpZlkl2txLwvG6TFmr-81" style="edgeStyle=orthogonalEdgeStyle;rounded=0;orthogonalLoop=1;jettySize=auto;html=1;exitX=0.5;exitY=1;exitDx=0;exitDy=0;entryX=0.5;entryY=0;entryDx=0;entryDy=0;" parent="fdz2JXnDWoETyJIV6Ixd-73" source="SFGpZlkl2txLwvG6TFmr-76" target="SFGpZlkl2txLwvG6TFmr-79" edge="1">
          <mxGeometry relative="1" as="geometry" />
        </mxCell>
        <mxCell id="SFGpZlkl2txLwvG6TFmr-17" value="" style="group" parent="SFGpZlkl2txLwvG6TFmr-96" vertex="1" connectable="0">
          <mxGeometry x="570" width="1400" height="1050" as="geometry" />
        </mxCell>
        <mxCell id="wX_MCLOSpyru5hPgQ0eP-44" value="从NCBI下载基因组" style="swimlane;whiteSpace=wrap;html=1;" parent="SFGpZlkl2txLwvG6TFmr-17" vertex="1">
          <mxGeometry x="-4" y="16" width="342.5" height="150" as="geometry">
            <mxRectangle x="170" y="50" width="140" height="30" as="alternateBounds" />
          </mxGeometry>
        </mxCell>
        <mxCell id="wX_MCLOSpyru5hPgQ0eP-55" style="edgeStyle=orthogonalEdgeStyle;rounded=0;orthogonalLoop=1;jettySize=auto;html=1;exitX=0.07;exitY=0.4;exitDx=0;exitDy=0;exitPerimeter=0;" parent="wX_MCLOSpyru5hPgQ0eP-44" source="wX_MCLOSpyru5hPgQ0eP-51" target="wX_MCLOSpyru5hPgQ0eP-52" edge="1">
          <mxGeometry relative="1" as="geometry" />
        </mxCell>
        <mxCell id="roh6c2qE-MrcPQRFV2aa-177" style="edgeStyle=orthogonalEdgeStyle;rounded=0;orthogonalLoop=1;jettySize=auto;html=1;exitX=0.31;exitY=0.8;exitDx=0;exitDy=0;exitPerimeter=0;entryX=1;entryY=0.5;entryDx=0;entryDy=0;" edge="1" parent="wX_MCLOSpyru5hPgQ0eP-44" source="wX_MCLOSpyru5hPgQ0eP-51" target="wX_MCLOSpyru5hPgQ0eP-53">
          <mxGeometry relative="1" as="geometry">
            <Array as="points">
              <mxPoint x="251" y="108" />
              <mxPoint x="251" y="122" />
            </Array>
          </mxGeometry>
        </mxCell>
        <mxCell id="wX_MCLOSpyru5hPgQ0eP-51" value="NCBI-Refseq&lt;br&gt;Database" style="ellipse;shape=cloud;whiteSpace=wrap;html=1;" parent="wX_MCLOSpyru5hPgQ0eP-44" vertex="1">
          <mxGeometry x="217.5" y="56.5" width="120" height="75" as="geometry" />
        </mxCell>
        <mxCell id="roh6c2qE-MrcPQRFV2aa-173" style="edgeStyle=orthogonalEdgeStyle;rounded=0;orthogonalLoop=1;jettySize=auto;html=1;exitX=0.5;exitY=1;exitDx=0;exitDy=0;entryX=0.5;entryY=0;entryDx=0;entryDy=0;" edge="1" parent="wX_MCLOSpyru5hPgQ0eP-44" source="wX_MCLOSpyru5hPgQ0eP-52" target="wX_MCLOSpyru5hPgQ0eP-53">
          <mxGeometry relative="1" as="geometry" />
        </mxCell>
        <mxCell id="wX_MCLOSpyru5hPgQ0eP-52" value="assembly_summary_refseq" style="rounded=0;whiteSpace=wrap;html=1;" parent="wX_MCLOSpyru5hPgQ0eP-44" vertex="1">
          <mxGeometry x="14" y="76" width="160" height="20" as="geometry" />
        </mxCell>
        <mxCell id="wX_MCLOSpyru5hPgQ0eP-53" value="基因组序列" style="rounded=0;whiteSpace=wrap;html=1;" parent="wX_MCLOSpyru5hPgQ0eP-44" vertex="1">
          <mxGeometry x="34" y="112" width="120" height="20" as="geometry" />
        </mxCell>
        <mxCell id="wX_MCLOSpyru5hPgQ0eP-8" value="该文件为索引文件&lt;br&gt;从该文件中获取对应基因组和蛋白组（未使用）路径完成下载" style="text;html=1;strokeColor=none;fillColor=none;align=center;verticalAlign=middle;whiteSpace=wrap;rounded=0;" parent="wX_MCLOSpyru5hPgQ0eP-44" vertex="1">
          <mxGeometry x="5" y="23" width="180" height="50" as="geometry" />
        </mxCell>
        <mxCell id="wX_MCLOSpyru5hPgQ0eP-24" value="可能的RNA序列" style="rounded=0;whiteSpace=wrap;html=1;" parent="SFGpZlkl2txLwvG6TFmr-17" vertex="1">
          <mxGeometry x="60" y="280" width="120" height="20" as="geometry" />
        </mxCell>
        <mxCell id="wX_MCLOSpyru5hPgQ0eP-16" value="16sRNA序列" style="rounded=0;whiteSpace=wrap;html=1;" parent="SFGpZlkl2txLwvG6TFmr-17" vertex="1">
          <mxGeometry x="60" y="320" width="120" height="20" as="geometry" />
        </mxCell>
        <mxCell id="wX_MCLOSpyru5hPgQ0eP-28" value="注：部分基因组可能未提取出16s序列" style="text;html=1;strokeColor=none;fillColor=none;align=center;verticalAlign=middle;whiteSpace=wrap;rounded=0;" parent="SFGpZlkl2txLwvG6TFmr-17" vertex="1">
          <mxGeometry x="193" y="275" width="207.5" height="30" as="geometry" />
        </mxCell>
        <mxCell id="wX_MCLOSpyru5hPgQ0eP-29" value="注：同一基因组可能出现多条16s序列，&lt;br&gt;实际操作中全部纳入数据集" style="text;html=1;strokeColor=none;fillColor=none;align=center;verticalAlign=middle;whiteSpace=wrap;rounded=0;" parent="SFGpZlkl2txLwvG6TFmr-17" vertex="1">
          <mxGeometry x="193" y="320" width="220" height="30" as="geometry" />
        </mxCell>
        <mxCell id="wX_MCLOSpyru5hPgQ0eP-63" value="超种构建" style="swimlane;whiteSpace=wrap;html=1;" parent="SFGpZlkl2txLwvG6TFmr-17" vertex="1">
          <mxGeometry x="-175" y="510" width="200" height="340" as="geometry">
            <mxRectangle y="510" width="90" height="30" as="alternateBounds" />
          </mxGeometry>
        </mxCell>
        <mxCell id="wX_MCLOSpyru5hPgQ0eP-84" style="edgeStyle=orthogonalEdgeStyle;rounded=0;orthogonalLoop=1;jettySize=auto;html=1;exitX=0.5;exitY=1;exitDx=0;exitDy=0;entryX=0.5;entryY=0;entryDx=0;entryDy=0;" parent="wX_MCLOSpyru5hPgQ0eP-63" source="wX_MCLOSpyru5hPgQ0eP-43" target="wX_MCLOSpyru5hPgQ0eP-82" edge="1">
          <mxGeometry relative="1" as="geometry" />
        </mxCell>
        <mxCell id="wX_MCLOSpyru5hPgQ0eP-43" value="将16s序列按属水平进行分类" style="text;html=1;strokeColor=none;fillColor=none;align=center;verticalAlign=middle;whiteSpace=wrap;rounded=0;" parent="wX_MCLOSpyru5hPgQ0eP-63" vertex="1">
          <mxGeometry x="21.75" y="30" width="160" height="30" as="geometry" />
        </mxCell>
        <mxCell id="Jlw_3EHPzUQ6clfUJSRu-17" style="edgeStyle=orthogonalEdgeStyle;rounded=0;orthogonalLoop=1;jettySize=auto;html=1;exitX=0.5;exitY=1;exitDx=0;exitDy=0;entryX=0.5;entryY=0;entryDx=0;entryDy=0;" parent="wX_MCLOSpyru5hPgQ0eP-63" source="wX_MCLOSpyru5hPgQ0eP-82" target="wX_MCLOSpyru5hPgQ0eP-85" edge="1">
          <mxGeometry relative="1" as="geometry" />
        </mxCell>
        <mxCell id="Jlw_3EHPzUQ6clfUJSRu-46" value="cd-hit -c 0.99 -T 2 -s 0.98 -aL 0.98" style="edgeLabel;html=1;align=center;verticalAlign=middle;resizable=0;points=[];" parent="Jlw_3EHPzUQ6clfUJSRu-17" vertex="1" connectable="0">
          <mxGeometry x="-0.432" y="2" relative="1" as="geometry">
            <mxPoint y="5" as="offset" />
          </mxGeometry>
        </mxCell>
        <mxCell id="wX_MCLOSpyru5hPgQ0eP-82" value="属X16S序列" style="rounded=0;whiteSpace=wrap;html=1;" parent="wX_MCLOSpyru5hPgQ0eP-63" vertex="1">
          <mxGeometry x="41.75" y="85" width="120" height="20" as="geometry" />
        </mxCell>
        <mxCell id="Jlw_3EHPzUQ6clfUJSRu-22" style="edgeStyle=orthogonalEdgeStyle;rounded=0;orthogonalLoop=1;jettySize=auto;html=1;exitX=0.25;exitY=1;exitDx=0;exitDy=0;entryX=0.5;entryY=0;entryDx=0;entryDy=0;" parent="wX_MCLOSpyru5hPgQ0eP-63" source="wX_MCLOSpyru5hPgQ0eP-85" target="Jlw_3EHPzUQ6clfUJSRu-4" edge="1">
          <mxGeometry relative="1" as="geometry" />
        </mxCell>
        <mxCell id="Jlw_3EHPzUQ6clfUJSRu-23" style="edgeStyle=orthogonalEdgeStyle;rounded=0;orthogonalLoop=1;jettySize=auto;html=1;exitX=0.5;exitY=1;exitDx=0;exitDy=0;entryX=0.5;entryY=0;entryDx=0;entryDy=0;" parent="wX_MCLOSpyru5hPgQ0eP-63" source="wX_MCLOSpyru5hPgQ0eP-85" target="Jlw_3EHPzUQ6clfUJSRu-5" edge="1">
          <mxGeometry relative="1" as="geometry" />
        </mxCell>
        <mxCell id="Jlw_3EHPzUQ6clfUJSRu-24" style="edgeStyle=orthogonalEdgeStyle;rounded=0;orthogonalLoop=1;jettySize=auto;html=1;exitX=0.75;exitY=1;exitDx=0;exitDy=0;entryX=0.5;entryY=0;entryDx=0;entryDy=0;" parent="wX_MCLOSpyru5hPgQ0eP-63" source="wX_MCLOSpyru5hPgQ0eP-85" target="Jlw_3EHPzUQ6clfUJSRu-6" edge="1">
          <mxGeometry relative="1" as="geometry" />
        </mxCell>
        <mxCell id="wX_MCLOSpyru5hPgQ0eP-85" value="CD-HIT&lt;br&gt;多序列比对聚类" style="rounded=0;whiteSpace=wrap;html=1;" parent="wX_MCLOSpyru5hPgQ0eP-63" vertex="1">
          <mxGeometry x="41.75" y="147" width="120" height="30" as="geometry" />
        </mxCell>
        <mxCell id="Jlw_3EHPzUQ6clfUJSRu-18" style="edgeStyle=orthogonalEdgeStyle;rounded=0;orthogonalLoop=1;jettySize=auto;html=1;exitX=0.5;exitY=1;exitDx=0;exitDy=0;entryX=0.5;entryY=0;entryDx=0;entryDy=0;" parent="wX_MCLOSpyru5hPgQ0eP-63" source="Jlw_3EHPzUQ6clfUJSRu-4" target="Jlw_3EHPzUQ6clfUJSRu-11" edge="1">
          <mxGeometry relative="1" as="geometry" />
        </mxCell>
        <mxCell id="Jlw_3EHPzUQ6clfUJSRu-4" value="Cluster 1" style="rounded=1;whiteSpace=wrap;html=1;" parent="wX_MCLOSpyru5hPgQ0eP-63" vertex="1">
          <mxGeometry x="16" y="197" width="51" height="20" as="geometry" />
        </mxCell>
        <mxCell id="Jlw_3EHPzUQ6clfUJSRu-19" style="edgeStyle=orthogonalEdgeStyle;rounded=0;orthogonalLoop=1;jettySize=auto;html=1;exitX=0.5;exitY=1;exitDx=0;exitDy=0;entryX=0.5;entryY=0;entryDx=0;entryDy=0;" parent="wX_MCLOSpyru5hPgQ0eP-63" source="Jlw_3EHPzUQ6clfUJSRu-5" target="Jlw_3EHPzUQ6clfUJSRu-12" edge="1">
          <mxGeometry relative="1" as="geometry" />
        </mxCell>
        <mxCell id="Jlw_3EHPzUQ6clfUJSRu-5" value="..." style="rounded=1;whiteSpace=wrap;html=1;" parent="wX_MCLOSpyru5hPgQ0eP-63" vertex="1">
          <mxGeometry x="76.25" y="197" width="51" height="20" as="geometry" />
        </mxCell>
        <mxCell id="Jlw_3EHPzUQ6clfUJSRu-20" style="edgeStyle=orthogonalEdgeStyle;rounded=0;orthogonalLoop=1;jettySize=auto;html=1;exitX=0.5;exitY=1;exitDx=0;exitDy=0;entryX=0.5;entryY=0;entryDx=0;entryDy=0;" parent="wX_MCLOSpyru5hPgQ0eP-63" source="Jlw_3EHPzUQ6clfUJSRu-6" target="Jlw_3EHPzUQ6clfUJSRu-13" edge="1">
          <mxGeometry relative="1" as="geometry" />
        </mxCell>
        <mxCell id="Jlw_3EHPzUQ6clfUJSRu-6" value="Cluster x" style="rounded=1;whiteSpace=wrap;html=1;" parent="wX_MCLOSpyru5hPgQ0eP-63" vertex="1">
          <mxGeometry x="133" y="197" width="51" height="20" as="geometry" />
        </mxCell>
        <mxCell id="Jlw_3EHPzUQ6clfUJSRu-11" value="超种 1" style="rounded=1;whiteSpace=wrap;html=1;" parent="wX_MCLOSpyru5hPgQ0eP-63" vertex="1">
          <mxGeometry x="16" y="227" width="51" height="20" as="geometry" />
        </mxCell>
        <mxCell id="Jlw_3EHPzUQ6clfUJSRu-12" value="..." style="rounded=1;whiteSpace=wrap;html=1;" parent="wX_MCLOSpyru5hPgQ0eP-63" vertex="1">
          <mxGeometry x="76.25" y="227" width="51" height="20" as="geometry" />
        </mxCell>
        <mxCell id="Jlw_3EHPzUQ6clfUJSRu-13" value="超种 x" style="rounded=1;whiteSpace=wrap;html=1;" parent="wX_MCLOSpyru5hPgQ0eP-63" vertex="1">
          <mxGeometry x="133" y="227" width="51" height="20" as="geometry" />
        </mxCell>
        <mxCell id="fdz2JXnDWoETyJIV6Ixd-80" value="初步物种注释" style="rounded=1;whiteSpace=wrap;html=1;fontSize=12;" parent="SFGpZlkl2txLwvG6TFmr-17" vertex="1">
          <mxGeometry x="300" y="1011" width="89.75" height="30" as="geometry" />
        </mxCell>
        <mxCell id="SFGpZlkl2txLwvG6TFmr-1" value="分类器构建" style="rounded=0;whiteSpace=wrap;html=1;" parent="SFGpZlkl2txLwvG6TFmr-17" vertex="1">
          <mxGeometry x="60" y="360" width="120" height="20" as="geometry" />
        </mxCell>
        <mxCell id="roh6c2qE-MrcPQRFV2aa-200" style="edgeStyle=orthogonalEdgeStyle;rounded=0;orthogonalLoop=1;jettySize=auto;html=1;exitX=1;exitY=0.5;exitDx=0;exitDy=0;startArrow=classic;startFill=1;dashed=1;dashPattern=8 8;fillColor=#dae8fc;strokeColor=#6c8ebf;" edge="1" parent="SFGpZlkl2txLwvG6TFmr-17" source="SFGpZlkl2txLwvG6TFmr-3" target="SFGpZlkl2txLwvG6TFmr-4">
          <mxGeometry relative="1" as="geometry" />
        </mxCell>
        <mxCell id="roh6c2qE-MrcPQRFV2aa-206" value="比较" style="edgeLabel;html=1;align=center;verticalAlign=middle;resizable=0;points=[];" vertex="1" connectable="0" parent="roh6c2qE-MrcPQRFV2aa-200">
          <mxGeometry x="-0.2022" y="-1" relative="1" as="geometry">
            <mxPoint x="6" y="-2" as="offset" />
          </mxGeometry>
        </mxCell>
        <mxCell id="roh6c2qE-MrcPQRFV2aa-219" style="edgeStyle=orthogonalEdgeStyle;rounded=0;orthogonalLoop=1;jettySize=auto;html=1;exitX=0.5;exitY=1;exitDx=0;exitDy=0;entryX=0.5;entryY=0;entryDx=0;entryDy=0;" edge="1" parent="SFGpZlkl2txLwvG6TFmr-17" source="SFGpZlkl2txLwvG6TFmr-3" target="wX_MCLOSpyru5hPgQ0eP-63">
          <mxGeometry relative="1" as="geometry" />
        </mxCell>
        <mxCell id="roh6c2qE-MrcPQRFV2aa-221" style="edgeStyle=orthogonalEdgeStyle;rounded=0;orthogonalLoop=1;jettySize=auto;html=1;exitX=0.5;exitY=1;exitDx=0;exitDy=0;entryX=0.5;entryY=0;entryDx=0;entryDy=0;" edge="1" parent="SFGpZlkl2txLwvG6TFmr-17" source="SFGpZlkl2txLwvG6TFmr-3" target="SFGpZlkl2txLwvG6TFmr-9">
          <mxGeometry relative="1" as="geometry">
            <Array as="points">
              <mxPoint x="-76" y="481" />
              <mxPoint x="43" y="481" />
            </Array>
          </mxGeometry>
        </mxCell>
        <mxCell id="SFGpZlkl2txLwvG6TFmr-3" value="贝叶斯分类器" style="rounded=0;whiteSpace=wrap;html=1;" parent="SFGpZlkl2txLwvG6TFmr-17" vertex="1">
          <mxGeometry x="-121" y="420" width="90" height="30" as="geometry" />
        </mxCell>
        <mxCell id="SFGpZlkl2txLwvG6TFmr-35" style="edgeStyle=orthogonalEdgeStyle;rounded=0;orthogonalLoop=1;jettySize=auto;html=1;exitX=0.5;exitY=1;exitDx=0;exitDy=0;entryX=0.5;entryY=0;entryDx=0;entryDy=0;" parent="SFGpZlkl2txLwvG6TFmr-17" source="SFGpZlkl2txLwvG6TFmr-4" target="SFGpZlkl2txLwvG6TFmr-24" edge="1">
          <mxGeometry relative="1" as="geometry" />
        </mxCell>
        <mxCell id="roh6c2qE-MrcPQRFV2aa-201" style="edgeStyle=orthogonalEdgeStyle;rounded=0;orthogonalLoop=1;jettySize=auto;html=1;exitX=1;exitY=0.5;exitDx=0;exitDy=0;startArrow=classic;startFill=1;dashed=1;dashPattern=8 8;fillColor=#dae8fc;strokeColor=#6c8ebf;" edge="1" parent="SFGpZlkl2txLwvG6TFmr-17" source="SFGpZlkl2txLwvG6TFmr-4" target="SFGpZlkl2txLwvG6TFmr-5">
          <mxGeometry relative="1" as="geometry" />
        </mxCell>
        <mxCell id="roh6c2qE-MrcPQRFV2aa-208" value="比较" style="edgeLabel;html=1;align=center;verticalAlign=middle;resizable=0;points=[];" vertex="1" connectable="0" parent="roh6c2qE-MrcPQRFV2aa-201">
          <mxGeometry x="-0.0495" relative="1" as="geometry">
            <mxPoint as="offset" />
          </mxGeometry>
        </mxCell>
        <mxCell id="SFGpZlkl2txLwvG6TFmr-4" value="BLAST分类器" style="rounded=0;whiteSpace=wrap;html=1;" parent="SFGpZlkl2txLwvG6TFmr-17" vertex="1">
          <mxGeometry x="109" y="420" width="90" height="30" as="geometry" />
        </mxCell>
        <mxCell id="roh6c2qE-MrcPQRFV2aa-213" style="edgeStyle=orthogonalEdgeStyle;rounded=0;orthogonalLoop=1;jettySize=auto;html=1;exitX=1;exitY=0.5;exitDx=0;exitDy=0;entryX=0;entryY=0.5;entryDx=0;entryDy=0;dashed=1;dashPattern=8 8;startArrow=classic;startFill=1;fillColor=#dae8fc;strokeColor=#6c8ebf;" edge="1" parent="SFGpZlkl2txLwvG6TFmr-17" source="SFGpZlkl2txLwvG6TFmr-5" target="fdz2JXnDWoETyJIV6Ixd-83">
          <mxGeometry relative="1" as="geometry" />
        </mxCell>
        <mxCell id="roh6c2qE-MrcPQRFV2aa-214" value="比较" style="edgeLabel;html=1;align=center;verticalAlign=middle;resizable=0;points=[];" vertex="1" connectable="0" parent="roh6c2qE-MrcPQRFV2aa-213">
          <mxGeometry x="0.0617" y="2" relative="1" as="geometry">
            <mxPoint x="-5" as="offset" />
          </mxGeometry>
        </mxCell>
        <mxCell id="SFGpZlkl2txLwvG6TFmr-5" value="SPINGO分类器" style="rounded=0;whiteSpace=wrap;html=1;" parent="SFGpZlkl2txLwvG6TFmr-17" vertex="1">
          <mxGeometry x="321" y="420" width="90" height="30" as="geometry" />
        </mxCell>
        <mxCell id="SFGpZlkl2txLwvG6TFmr-109" style="edgeStyle=orthogonalEdgeStyle;rounded=0;orthogonalLoop=1;jettySize=auto;html=1;exitX=0.5;exitY=1;exitDx=0;exitDy=0;entryX=0.25;entryY=0;entryDx=0;entryDy=0;fillColor=#e1d5e7;strokeColor=#9673a6;strokeWidth=2;" parent="SFGpZlkl2txLwvG6TFmr-17" source="SFGpZlkl2txLwvG6TFmr-9" target="fdz2JXnDWoETyJIV6Ixd-80" edge="1">
          <mxGeometry relative="1" as="geometry" />
        </mxCell>
        <mxCell id="SFGpZlkl2txLwvG6TFmr-9" value="无超种分类器" style="rounded=0;whiteSpace=wrap;html=1;" parent="SFGpZlkl2txLwvG6TFmr-17" vertex="1">
          <mxGeometry x="-2" y="863" width="90" height="30" as="geometry" />
        </mxCell>
        <mxCell id="SFGpZlkl2txLwvG6TFmr-110" style="edgeStyle=orthogonalEdgeStyle;rounded=0;orthogonalLoop=1;jettySize=auto;html=1;exitX=0.5;exitY=1;exitDx=0;exitDy=0;entryX=0.25;entryY=0;entryDx=0;entryDy=0;fillColor=#e1d5e7;strokeColor=#9673a6;strokeWidth=2;" parent="SFGpZlkl2txLwvG6TFmr-17" source="Jlw_3EHPzUQ6clfUJSRu-25" target="fdz2JXnDWoETyJIV6Ixd-80" edge="1">
          <mxGeometry relative="1" as="geometry" />
        </mxCell>
        <mxCell id="Jlw_3EHPzUQ6clfUJSRu-25" value="超种分类器" style="rounded=0;whiteSpace=wrap;html=1;" parent="SFGpZlkl2txLwvG6TFmr-17" vertex="1">
          <mxGeometry x="-120" y="863" width="95" height="30" as="geometry" />
        </mxCell>
        <mxCell id="wX_MCLOSpyru5hPgQ0eP-27" style="edgeStyle=orthogonalEdgeStyle;rounded=0;orthogonalLoop=1;jettySize=auto;html=1;exitX=0.5;exitY=1;exitDx=0;exitDy=0;entryX=0.5;entryY=0;entryDx=0;entryDy=0;" parent="SFGpZlkl2txLwvG6TFmr-17" source="wX_MCLOSpyru5hPgQ0eP-24" target="wX_MCLOSpyru5hPgQ0eP-16" edge="1">
          <mxGeometry relative="1" as="geometry" />
        </mxCell>
        <mxCell id="SFGpZlkl2txLwvG6TFmr-2" style="edgeStyle=orthogonalEdgeStyle;rounded=0;orthogonalLoop=1;jettySize=auto;html=1;exitX=0.5;exitY=1;exitDx=0;exitDy=0;" parent="SFGpZlkl2txLwvG6TFmr-17" source="wX_MCLOSpyru5hPgQ0eP-16" target="SFGpZlkl2txLwvG6TFmr-1" edge="1">
          <mxGeometry relative="1" as="geometry" />
        </mxCell>
        <mxCell id="SFGpZlkl2txLwvG6TFmr-7" style="edgeStyle=orthogonalEdgeStyle;rounded=0;orthogonalLoop=1;jettySize=auto;html=1;exitX=0.5;exitY=1;exitDx=0;exitDy=0;entryX=0.5;entryY=0;entryDx=0;entryDy=0;" parent="SFGpZlkl2txLwvG6TFmr-17" source="SFGpZlkl2txLwvG6TFmr-1" target="SFGpZlkl2txLwvG6TFmr-3" edge="1">
          <mxGeometry relative="1" as="geometry" />
        </mxCell>
        <mxCell id="SFGpZlkl2txLwvG6TFmr-6" style="edgeStyle=orthogonalEdgeStyle;rounded=0;orthogonalLoop=1;jettySize=auto;html=1;exitX=0.5;exitY=1;exitDx=0;exitDy=0;entryX=0.5;entryY=0;entryDx=0;entryDy=0;" parent="SFGpZlkl2txLwvG6TFmr-17" source="SFGpZlkl2txLwvG6TFmr-1" target="SFGpZlkl2txLwvG6TFmr-4" edge="1">
          <mxGeometry relative="1" as="geometry" />
        </mxCell>
        <mxCell id="SFGpZlkl2txLwvG6TFmr-8" style="edgeStyle=orthogonalEdgeStyle;rounded=0;orthogonalLoop=1;jettySize=auto;html=1;exitX=0.5;exitY=1;exitDx=0;exitDy=0;" parent="SFGpZlkl2txLwvG6TFmr-17" source="SFGpZlkl2txLwvG6TFmr-1" target="SFGpZlkl2txLwvG6TFmr-5" edge="1">
          <mxGeometry relative="1" as="geometry" />
        </mxCell>
        <mxCell id="Jlw_3EHPzUQ6clfUJSRu-26" style="edgeStyle=orthogonalEdgeStyle;rounded=0;orthogonalLoop=1;jettySize=auto;html=1;exitX=0.5;exitY=1;exitDx=0;exitDy=0;entryX=0.5;entryY=0;entryDx=0;entryDy=0;" parent="SFGpZlkl2txLwvG6TFmr-17" source="Jlw_3EHPzUQ6clfUJSRu-11" target="Jlw_3EHPzUQ6clfUJSRu-25" edge="1">
          <mxGeometry relative="1" as="geometry" />
        </mxCell>
        <mxCell id="Jlw_3EHPzUQ6clfUJSRu-27" style="edgeStyle=orthogonalEdgeStyle;rounded=0;orthogonalLoop=1;jettySize=auto;html=1;exitX=0.5;exitY=1;exitDx=0;exitDy=0;entryX=0.5;entryY=0;entryDx=0;entryDy=0;" parent="SFGpZlkl2txLwvG6TFmr-17" source="Jlw_3EHPzUQ6clfUJSRu-12" target="Jlw_3EHPzUQ6clfUJSRu-25" edge="1">
          <mxGeometry relative="1" as="geometry">
            <mxPoint x="127" y="825" as="targetPoint" />
          </mxGeometry>
        </mxCell>
        <mxCell id="Jlw_3EHPzUQ6clfUJSRu-28" style="edgeStyle=orthogonalEdgeStyle;rounded=0;orthogonalLoop=1;jettySize=auto;html=1;exitX=0.5;exitY=1;exitDx=0;exitDy=0;entryX=0.5;entryY=0;entryDx=0;entryDy=0;" parent="SFGpZlkl2txLwvG6TFmr-17" source="Jlw_3EHPzUQ6clfUJSRu-13" target="Jlw_3EHPzUQ6clfUJSRu-25" edge="1">
          <mxGeometry relative="1" as="geometry">
            <mxPoint x="127" y="825" as="targetPoint" />
          </mxGeometry>
        </mxCell>
        <mxCell id="SFGpZlkl2txLwvG6TFmr-28" value="" style="swimlane;startSize=0;" parent="SFGpZlkl2txLwvG6TFmr-17" vertex="1">
          <mxGeometry x="60" y="510" width="183" height="340" as="geometry">
            <mxRectangle x="345" y="510" width="50" height="40" as="alternateBounds" />
          </mxGeometry>
        </mxCell>
        <mxCell id="SFGpZlkl2txLwvG6TFmr-29" style="edgeStyle=orthogonalEdgeStyle;rounded=0;orthogonalLoop=1;jettySize=auto;html=1;exitX=0.5;exitY=1;exitDx=0;exitDy=0;entryX=0.5;entryY=0;entryDx=0;entryDy=0;" parent="SFGpZlkl2txLwvG6TFmr-28" source="SFGpZlkl2txLwvG6TFmr-24" target="SFGpZlkl2txLwvG6TFmr-25" edge="1">
          <mxGeometry relative="1" as="geometry" />
        </mxCell>
        <mxCell id="SFGpZlkl2txLwvG6TFmr-24" value="以Refseq数据构建&lt;br&gt;本地BLAST数据库" style="rounded=0;whiteSpace=wrap;html=1;" parent="SFGpZlkl2txLwvG6TFmr-28" vertex="1">
          <mxGeometry x="34.5" y="25" width="120" height="40" as="geometry" />
        </mxCell>
        <mxCell id="SFGpZlkl2txLwvG6TFmr-31" style="edgeStyle=orthogonalEdgeStyle;rounded=0;orthogonalLoop=1;jettySize=auto;html=1;exitX=0.5;exitY=1;exitDx=0;exitDy=0;entryX=0.5;entryY=0;entryDx=0;entryDy=0;" parent="SFGpZlkl2txLwvG6TFmr-28" source="SFGpZlkl2txLwvG6TFmr-25" target="SFGpZlkl2txLwvG6TFmr-26" edge="1">
          <mxGeometry relative="1" as="geometry" />
        </mxCell>
        <mxCell id="SFGpZlkl2txLwvG6TFmr-25" value="Qurey序列与本地数据库序列比对" style="rounded=0;whiteSpace=wrap;html=1;" parent="SFGpZlkl2txLwvG6TFmr-28" vertex="1">
          <mxGeometry x="34.5" y="157" width="120" height="40" as="geometry" />
        </mxCell>
        <mxCell id="SFGpZlkl2txLwvG6TFmr-26" value="选中比对最长且e-value最小的结果输出" style="rounded=0;whiteSpace=wrap;html=1;" parent="SFGpZlkl2txLwvG6TFmr-28" vertex="1">
          <mxGeometry x="34.5" y="288" width="120" height="40" as="geometry" />
        </mxCell>
        <mxCell id="SFGpZlkl2txLwvG6TFmr-38" value="" style="swimlane;startSize=0;" parent="SFGpZlkl2txLwvG6TFmr-17" vertex="1">
          <mxGeometry x="269" y="510" width="195" height="340" as="geometry">
            <mxRectangle x="360" y="510" width="50" height="40" as="alternateBounds" />
          </mxGeometry>
        </mxCell>
        <mxCell id="SFGpZlkl2txLwvG6TFmr-40" value="每三级Refseq分类数据训练一套分类器" style="rounded=0;whiteSpace=wrap;html=1;" parent="SFGpZlkl2txLwvG6TFmr-38" vertex="1">
          <mxGeometry x="37.5" y="25" width="120" height="40" as="geometry" />
        </mxCell>
        <mxCell id="SFGpZlkl2txLwvG6TFmr-43" value="合并各分类器结果并输出" style="rounded=0;whiteSpace=wrap;html=1;" parent="SFGpZlkl2txLwvG6TFmr-38" vertex="1">
          <mxGeometry x="30.25" y="288" width="134.5" height="40" as="geometry" />
        </mxCell>
        <mxCell id="SFGpZlkl2txLwvG6TFmr-42" value="自上而下对序列进行注释&lt;br&gt;未注释的序列使用上一级分类器" style="rounded=0;whiteSpace=wrap;html=1;" parent="SFGpZlkl2txLwvG6TFmr-38" vertex="1">
          <mxGeometry x="7.5" y="150" width="180" height="40" as="geometry" />
        </mxCell>
        <mxCell id="SFGpZlkl2txLwvG6TFmr-39" style="edgeStyle=orthogonalEdgeStyle;rounded=0;orthogonalLoop=1;jettySize=auto;html=1;exitX=0.5;exitY=1;exitDx=0;exitDy=0;entryX=0.5;entryY=0;entryDx=0;entryDy=0;" parent="SFGpZlkl2txLwvG6TFmr-38" source="SFGpZlkl2txLwvG6TFmr-40" target="SFGpZlkl2txLwvG6TFmr-42" edge="1">
          <mxGeometry relative="1" as="geometry" />
        </mxCell>
        <mxCell id="SFGpZlkl2txLwvG6TFmr-41" style="edgeStyle=orthogonalEdgeStyle;rounded=0;orthogonalLoop=1;jettySize=auto;html=1;exitX=0.5;exitY=1;exitDx=0;exitDy=0;entryX=0.5;entryY=0;entryDx=0;entryDy=0;" parent="SFGpZlkl2txLwvG6TFmr-38" source="SFGpZlkl2txLwvG6TFmr-42" target="SFGpZlkl2txLwvG6TFmr-43" edge="1">
          <mxGeometry relative="1" as="geometry" />
        </mxCell>
        <mxCell id="SFGpZlkl2txLwvG6TFmr-44" style="edgeStyle=orthogonalEdgeStyle;rounded=0;orthogonalLoop=1;jettySize=auto;html=1;exitX=0.5;exitY=1;exitDx=0;exitDy=0;entryX=0.5;entryY=0;entryDx=0;entryDy=0;" parent="SFGpZlkl2txLwvG6TFmr-17" source="SFGpZlkl2txLwvG6TFmr-5" target="SFGpZlkl2txLwvG6TFmr-40" edge="1">
          <mxGeometry relative="1" as="geometry" />
        </mxCell>
        <mxCell id="SFGpZlkl2txLwvG6TFmr-64" value="原始测序数据&lt;br&gt;（fastq/fastq.gz)" style="rounded=1;whiteSpace=wrap;html=1;" parent="SFGpZlkl2txLwvG6TFmr-17" vertex="1">
          <mxGeometry x="823" y="279" width="120" height="40" as="geometry" />
        </mxCell>
        <mxCell id="SFGpZlkl2txLwvG6TFmr-98" style="edgeStyle=orthogonalEdgeStyle;rounded=0;orthogonalLoop=1;jettySize=auto;html=1;exitX=0.5;exitY=1;exitDx=0;exitDy=0;entryX=0.5;entryY=0;entryDx=0;entryDy=0;fillColor=#e1d5e7;strokeColor=#9673a6;strokeWidth=2;" parent="SFGpZlkl2txLwvG6TFmr-17" source="SFGpZlkl2txLwvG6TFmr-26" target="fdz2JXnDWoETyJIV6Ixd-80" edge="1">
          <mxGeometry relative="1" as="geometry" />
        </mxCell>
        <mxCell id="SFGpZlkl2txLwvG6TFmr-99" style="edgeStyle=orthogonalEdgeStyle;rounded=0;orthogonalLoop=1;jettySize=auto;html=1;exitX=0.5;exitY=1;exitDx=0;exitDy=0;entryX=0.75;entryY=0;entryDx=0;entryDy=0;fillColor=#e1d5e7;strokeColor=#9673a6;strokeWidth=2;" parent="SFGpZlkl2txLwvG6TFmr-17" source="SFGpZlkl2txLwvG6TFmr-43" target="fdz2JXnDWoETyJIV6Ixd-80" edge="1">
          <mxGeometry relative="1" as="geometry" />
        </mxCell>
        <mxCell id="SFGpZlkl2txLwvG6TFmr-114" style="edgeStyle=orthogonalEdgeStyle;rounded=0;orthogonalLoop=1;jettySize=auto;html=1;exitX=0.5;exitY=1;exitDx=0;exitDy=0;entryX=0.5;entryY=0;entryDx=0;entryDy=0;fillColor=#e1d5e7;strokeColor=#9673a6;strokeWidth=2;" parent="SFGpZlkl2txLwvG6TFmr-17" source="fdz2JXnDWoETyJIV6Ixd-83" target="SFGpZlkl2txLwvG6TFmr-112" edge="1">
          <mxGeometry relative="1" as="geometry" />
        </mxCell>
        <mxCell id="fdz2JXnDWoETyJIV6Ixd-83" value="同类贝叶斯分类器&lt;br style=&quot;font-size: 13px;&quot;&gt;SILVA/Greengene&lt;br style=&quot;font-size: 13px;&quot;&gt;（From Qiime）" style="rounded=0;whiteSpace=wrap;html=1;fontSize=13;" parent="SFGpZlkl2txLwvG6TFmr-17" vertex="1">
          <mxGeometry x="542" y="410" width="128" height="50" as="geometry" />
        </mxCell>
        <mxCell id="SFGpZlkl2txLwvG6TFmr-112" value="物种注释" style="rounded=1;whiteSpace=wrap;html=1;" parent="SFGpZlkl2txLwvG6TFmr-17" vertex="1">
          <mxGeometry x="556.25" y="941" width="100.5" height="31" as="geometry" />
        </mxCell>
        <mxCell id="SFGpZlkl2txLwvG6TFmr-121" value="原始测序数据&lt;br&gt;（fastq/fastq.gz)" style="rounded=1;whiteSpace=wrap;html=1;" parent="SFGpZlkl2txLwvG6TFmr-17" vertex="1">
          <mxGeometry x="1056" y="1006" width="120" height="40" as="geometry" />
        </mxCell>
        <mxCell id="roh6c2qE-MrcPQRFV2aa-223" style="edgeStyle=orthogonalEdgeStyle;rounded=0;orthogonalLoop=1;jettySize=auto;html=1;exitX=0.75;exitY=1;exitDx=0;exitDy=0;entryX=0.5;entryY=0;entryDx=0;entryDy=0;" edge="1" parent="SFGpZlkl2txLwvG6TFmr-17" source="wX_MCLOSpyru5hPgQ0eP-53" target="wX_MCLOSpyru5hPgQ0eP-24">
          <mxGeometry relative="1" as="geometry" />
        </mxCell>
        <mxCell id="roh6c2qE-MrcPQRFV2aa-224" value="barrnap工具提取rna片段" style="edgeLabel;html=1;align=center;verticalAlign=middle;resizable=0;points=[];" vertex="1" connectable="0" parent="roh6c2qE-MrcPQRFV2aa-223">
          <mxGeometry x="0.013" relative="1" as="geometry">
            <mxPoint as="offset" />
          </mxGeometry>
        </mxCell>
        <mxCell id="fdz2JXnDWoETyJIV6Ixd-96" style="edgeStyle=orthogonalEdgeStyle;rounded=0;orthogonalLoop=1;jettySize=auto;html=1;exitX=1;exitY=0.5;exitDx=0;exitDy=0;fontSize=12;startSize=8;endSize=8;dashed=1;" parent="SFGpZlkl2txLwvG6TFmr-96" source="wX_MCLOSpyru5hPgQ0eP-44" target="fdz2JXnDWoETyJIV6Ixd-55" edge="1">
          <mxGeometry relative="1" as="geometry" />
        </mxCell>
        <mxCell id="fdz2JXnDWoETyJIV6Ixd-98" value="&lt;font style=&quot;font-size: 12px;&quot;&gt;分类序列&lt;span style=&quot;background-color: rgb(251, 251, 251);&quot;&gt;对应物种&lt;/span&gt;&lt;/font&gt;" style="edgeLabel;html=1;align=center;verticalAlign=middle;resizable=0;points=[];fontSize=16;" parent="fdz2JXnDWoETyJIV6Ixd-96" vertex="1" connectable="0">
          <mxGeometry x="-0.5152" relative="1" as="geometry">
            <mxPoint as="offset" />
          </mxGeometry>
        </mxCell>
        <mxCell id="roh6c2qE-MrcPQRFV2aa-180" style="edgeStyle=orthogonalEdgeStyle;rounded=0;orthogonalLoop=1;jettySize=auto;html=1;exitX=0.5;exitY=1;exitDx=0;exitDy=0;entryX=0.75;entryY=0;entryDx=0;entryDy=0;" edge="1" parent="SFGpZlkl2txLwvG6TFmr-96" source="wX_MCLOSpyru5hPgQ0eP-17" target="roh6c2qE-MrcPQRFV2aa-142">
          <mxGeometry relative="1" as="geometry" />
        </mxCell>
        <mxCell id="wX_MCLOSpyru5hPgQ0eP-17" value="蛋白marker序列" style="rounded=0;whiteSpace=wrap;html=1;" parent="SFGpZlkl2txLwvG6TFmr-96" vertex="1">
          <mxGeometry x="149" y="230" width="120" height="20" as="geometry" />
        </mxCell>
        <mxCell id="SFGpZlkl2txLwvG6TFmr-56" style="edgeStyle=orthogonalEdgeStyle;rounded=0;orthogonalLoop=1;jettySize=auto;html=1;entryX=1;entryY=0.5;entryDx=0;entryDy=0;strokeWidth=3;" parent="SFGpZlkl2txLwvG6TFmr-96" source="SFGpZlkl2txLwvG6TFmr-55" target="fdz2JXnDWoETyJIV6Ixd-80" edge="1">
          <mxGeometry relative="1" as="geometry" />
        </mxCell>
        <mxCell id="SFGpZlkl2txLwvG6TFmr-113" style="edgeStyle=orthogonalEdgeStyle;rounded=0;orthogonalLoop=1;jettySize=auto;html=1;exitX=0;exitY=0.5;exitDx=0;exitDy=0;entryX=1;entryY=0.5;entryDx=0;entryDy=0;" parent="SFGpZlkl2txLwvG6TFmr-96" source="SFGpZlkl2txLwvG6TFmr-55" target="SFGpZlkl2txLwvG6TFmr-112" edge="1">
          <mxGeometry relative="1" as="geometry" />
        </mxCell>
        <mxCell id="SFGpZlkl2txLwvG6TFmr-55" value="Query ASVs" style="rounded=1;whiteSpace=wrap;html=1;" parent="SFGpZlkl2txLwvG6TFmr-96" vertex="1">
          <mxGeometry x="1393" y="1011" width="120" height="30" as="geometry" />
        </mxCell>
        <mxCell id="SFGpZlkl2txLwvG6TFmr-57" style="edgeStyle=orthogonalEdgeStyle;rounded=0;orthogonalLoop=1;jettySize=auto;html=1;exitX=0.5;exitY=1;exitDx=0;exitDy=0;entryX=0.5;entryY=0;entryDx=0;entryDy=0;strokeWidth=3;" parent="SFGpZlkl2txLwvG6TFmr-96" source="fdz2JXnDWoETyJIV6Ixd-73" target="SFGpZlkl2txLwvG6TFmr-55" edge="1">
          <mxGeometry relative="1" as="geometry" />
        </mxCell>
        <mxCell id="SFGpZlkl2txLwvG6TFmr-66" style="edgeStyle=orthogonalEdgeStyle;rounded=0;orthogonalLoop=1;jettySize=auto;html=1;exitX=0.5;exitY=1;exitDx=0;exitDy=0;entryX=0.5;entryY=0;entryDx=0;entryDy=0;strokeWidth=3;" parent="SFGpZlkl2txLwvG6TFmr-96" source="SFGpZlkl2txLwvG6TFmr-64" target="fdz2JXnDWoETyJIV6Ixd-73" edge="1">
          <mxGeometry relative="1" as="geometry" />
        </mxCell>
        <mxCell id="SFGpZlkl2txLwvG6TFmr-115" style="edgeStyle=orthogonalEdgeStyle;rounded=0;orthogonalLoop=1;jettySize=auto;html=1;exitX=0.5;exitY=0;exitDx=0;exitDy=0;entryX=0;entryY=0.5;entryDx=0;entryDy=0;dashed=1;" parent="SFGpZlkl2txLwvG6TFmr-96" source="fdz2JXnDWoETyJIV6Ixd-83" target="fdz2JXnDWoETyJIV6Ixd-3" edge="1">
          <mxGeometry relative="1" as="geometry" />
        </mxCell>
        <mxCell id="SFGpZlkl2txLwvG6TFmr-116" style="edgeStyle=orthogonalEdgeStyle;rounded=0;orthogonalLoop=1;jettySize=auto;html=1;exitX=0.5;exitY=0;exitDx=0;exitDy=0;entryX=0;entryY=0.5;entryDx=0;entryDy=0;dashed=1;" parent="SFGpZlkl2txLwvG6TFmr-96" source="fdz2JXnDWoETyJIV6Ixd-83" target="fdz2JXnDWoETyJIV6Ixd-57" edge="1">
          <mxGeometry relative="1" as="geometry" />
        </mxCell>
        <mxCell id="SFGpZlkl2txLwvG6TFmr-117" style="edgeStyle=orthogonalEdgeStyle;rounded=0;orthogonalLoop=1;jettySize=auto;html=1;exitX=0.5;exitY=0;exitDx=0;exitDy=0;entryX=0;entryY=0.5;entryDx=0;entryDy=0;dashed=1;" parent="SFGpZlkl2txLwvG6TFmr-96" source="fdz2JXnDWoETyJIV6Ixd-83" target="fdz2JXnDWoETyJIV6Ixd-58" edge="1">
          <mxGeometry relative="1" as="geometry" />
        </mxCell>
        <mxCell id="SFGpZlkl2txLwvG6TFmr-119" value="二次物种注释" style="rounded=1;whiteSpace=wrap;html=1;" parent="SFGpZlkl2txLwvG6TFmr-96" vertex="1">
          <mxGeometry x="94" y="1010" width="90" height="31" as="geometry" />
        </mxCell>
        <mxCell id="SFGpZlkl2txLwvG6TFmr-120" style="edgeStyle=orthogonalEdgeStyle;rounded=0;orthogonalLoop=1;jettySize=auto;html=1;exitX=0;exitY=0.5;exitDx=0;exitDy=0;entryX=1;entryY=0.5;entryDx=0;entryDy=0;strokeWidth=3;" parent="SFGpZlkl2txLwvG6TFmr-96" source="fdz2JXnDWoETyJIV6Ixd-80" target="SFGpZlkl2txLwvG6TFmr-119" edge="1">
          <mxGeometry relative="1" as="geometry" />
        </mxCell>
        <mxCell id="SFGpZlkl2txLwvG6TFmr-124" style="edgeStyle=orthogonalEdgeStyle;rounded=0;orthogonalLoop=1;jettySize=auto;html=1;exitX=0;exitY=0.5;exitDx=0;exitDy=0;entryX=1;entryY=0.5;entryDx=0;entryDy=0;dashed=1;strokeWidth=3;" parent="SFGpZlkl2txLwvG6TFmr-96" source="SFGpZlkl2txLwvG6TFmr-121" target="SFGpZlkl2txLwvG6TFmr-55" edge="1">
          <mxGeometry relative="1" as="geometry">
            <mxPoint x="1599" y="1026" as="sourcePoint" />
          </mxGeometry>
        </mxCell>
        <mxCell id="roh6c2qE-MrcPQRFV2aa-142" value="从门到属各水平分类单元拆分数据进行处理" style="rounded=1;whiteSpace=wrap;html=1;fontStyle=1" vertex="1" parent="SFGpZlkl2txLwvG6TFmr-96">
          <mxGeometry x="-1" y="351.5" width="280" height="39" as="geometry" />
        </mxCell>
        <mxCell id="roh6c2qE-MrcPQRFV2aa-163" value="" style="group" vertex="1" connectable="0" parent="SFGpZlkl2txLwvG6TFmr-96">
          <mxGeometry x="9" y="612" width="300" height="90" as="geometry" />
        </mxCell>
        <mxCell id="roh6c2qE-MrcPQRFV2aa-164" value="" style="rounded=1;whiteSpace=wrap;html=1;" vertex="1" parent="roh6c2qE-MrcPQRFV2aa-163">
          <mxGeometry x="-10" y="-45" width="280" height="118" as="geometry" />
        </mxCell>
        <mxCell id="roh6c2qE-MrcPQRFV2aa-129" value="16s多序列比对" style="rounded=0;whiteSpace=wrap;html=1;" vertex="1" parent="roh6c2qE-MrcPQRFV2aa-163">
          <mxGeometry x="140" width="120" height="20" as="geometry" />
        </mxCell>
        <mxCell id="roh6c2qE-MrcPQRFV2aa-130" value="隐马尔可夫模型" style="rounded=0;whiteSpace=wrap;html=1;" vertex="1" parent="roh6c2qE-MrcPQRFV2aa-163">
          <mxGeometry x="140" y="41" width="120" height="20" as="geometry" />
        </mxCell>
        <mxCell id="roh6c2qE-MrcPQRFV2aa-135" value="系统发育树" style="rounded=0;whiteSpace=wrap;html=1;" vertex="1" parent="roh6c2qE-MrcPQRFV2aa-163">
          <mxGeometry width="120" height="20" as="geometry" />
        </mxCell>
        <mxCell id="roh6c2qE-MrcPQRFV2aa-136" value="系统发育树最佳参数" style="rounded=0;whiteSpace=wrap;html=1;" vertex="1" parent="roh6c2qE-MrcPQRFV2aa-163">
          <mxGeometry y="41" width="120" height="20" as="geometry" />
        </mxCell>
        <mxCell id="roh6c2qE-MrcPQRFV2aa-138" style="edgeStyle=orthogonalEdgeStyle;rounded=0;orthogonalLoop=1;jettySize=auto;html=1;exitX=0.5;exitY=1;exitDx=0;exitDy=0;entryX=0.5;entryY=0;entryDx=0;entryDy=0;" edge="1" parent="roh6c2qE-MrcPQRFV2aa-163" source="roh6c2qE-MrcPQRFV2aa-129" target="roh6c2qE-MrcPQRFV2aa-130">
          <mxGeometry relative="1" as="geometry" />
        </mxCell>
        <mxCell id="roh6c2qE-MrcPQRFV2aa-137" style="edgeStyle=orthogonalEdgeStyle;rounded=0;orthogonalLoop=1;jettySize=auto;html=1;exitX=0.5;exitY=1;exitDx=0;exitDy=0;entryX=0.5;entryY=0;entryDx=0;entryDy=0;" edge="1" parent="roh6c2qE-MrcPQRFV2aa-163" source="roh6c2qE-MrcPQRFV2aa-135" target="roh6c2qE-MrcPQRFV2aa-136">
          <mxGeometry relative="1" as="geometry" />
        </mxCell>
        <mxCell id="roh6c2qE-MrcPQRFV2aa-148" style="edgeStyle=orthogonalEdgeStyle;rounded=0;orthogonalLoop=1;jettySize=auto;html=1;exitX=0.25;exitY=1;exitDx=0;exitDy=0;entryX=0.5;entryY=0;entryDx=0;entryDy=0;dashed=1;" edge="1" parent="SFGpZlkl2txLwvG6TFmr-96" source="roh6c2qE-MrcPQRFV2aa-142" target="roh6c2qE-MrcPQRFV2aa-135">
          <mxGeometry relative="1" as="geometry" />
        </mxCell>
        <mxCell id="roh6c2qE-MrcPQRFV2aa-150" style="edgeStyle=orthogonalEdgeStyle;rounded=0;orthogonalLoop=1;jettySize=auto;html=1;exitX=0.75;exitY=1;exitDx=0;exitDy=0;entryX=0.5;entryY=0;entryDx=0;entryDy=0;" edge="1" parent="SFGpZlkl2txLwvG6TFmr-96" source="roh6c2qE-MrcPQRFV2aa-142" target="roh6c2qE-MrcPQRFV2aa-129">
          <mxGeometry relative="1" as="geometry" />
        </mxCell>
        <mxCell id="roh6c2qE-MrcPQRFV2aa-171" style="edgeStyle=orthogonalEdgeStyle;rounded=0;orthogonalLoop=1;jettySize=auto;html=1;exitX=0;exitY=0.5;exitDx=0;exitDy=0;entryX=0.5;entryY=0;entryDx=0;entryDy=0;" edge="1" parent="SFGpZlkl2txLwvG6TFmr-96" source="wX_MCLOSpyru5hPgQ0eP-53" target="wX_MCLOSpyru5hPgQ0eP-17">
          <mxGeometry relative="1" as="geometry" />
        </mxCell>
        <mxCell id="roh6c2qE-MrcPQRFV2aa-172" value="GTDBtk提取保守蛋白标记&lt;br style=&quot;border-color: var(--border-color);&quot;&gt;细菌120个 古菌53个" style="edgeLabel;html=1;align=center;verticalAlign=middle;resizable=0;points=[];" vertex="1" connectable="0" parent="roh6c2qE-MrcPQRFV2aa-171">
          <mxGeometry x="0.2967" y="4" relative="1" as="geometry">
            <mxPoint x="86" y="-6" as="offset" />
          </mxGeometry>
        </mxCell>
        <mxCell id="roh6c2qE-MrcPQRFV2aa-179" style="edgeStyle=orthogonalEdgeStyle;rounded=0;orthogonalLoop=1;jettySize=auto;html=1;exitX=0;exitY=0.5;exitDx=0;exitDy=0;entryX=0.75;entryY=0;entryDx=0;entryDy=0;" edge="1" parent="SFGpZlkl2txLwvG6TFmr-96" source="wX_MCLOSpyru5hPgQ0eP-16" target="roh6c2qE-MrcPQRFV2aa-142">
          <mxGeometry relative="1" as="geometry" />
        </mxCell>
        <mxCell id="roh6c2qE-MrcPQRFV2aa-186" style="edgeStyle=orthogonalEdgeStyle;rounded=0;orthogonalLoop=1;jettySize=auto;html=1;exitX=0;exitY=0.5;exitDx=0;exitDy=0;entryX=1;entryY=0.5;entryDx=0;entryDy=0;" edge="1" parent="SFGpZlkl2txLwvG6TFmr-96" source="roh6c2qE-MrcPQRFV2aa-182" target="roh6c2qE-MrcPQRFV2aa-184">
          <mxGeometry relative="1" as="geometry" />
        </mxCell>
        <mxCell id="roh6c2qE-MrcPQRFV2aa-182" value="未注释到种/属水平序列" style="rounded=1;whiteSpace=wrap;html=1;" vertex="1" parent="SFGpZlkl2txLwvG6TFmr-96">
          <mxGeometry x="233" y="862" width="132" height="28" as="geometry" />
        </mxCell>
        <mxCell id="roh6c2qE-MrcPQRFV2aa-183" style="edgeStyle=orthogonalEdgeStyle;rounded=0;orthogonalLoop=1;jettySize=auto;html=1;exitX=0;exitY=0.5;exitDx=0;exitDy=0;entryX=0.5;entryY=1;entryDx=0;entryDy=0;" edge="1" parent="SFGpZlkl2txLwvG6TFmr-96" source="fdz2JXnDWoETyJIV6Ixd-80" target="roh6c2qE-MrcPQRFV2aa-182">
          <mxGeometry relative="1" as="geometry" />
        </mxCell>
        <mxCell id="roh6c2qE-MrcPQRFV2aa-189" style="edgeStyle=orthogonalEdgeStyle;rounded=0;orthogonalLoop=1;jettySize=auto;html=1;exitX=0.5;exitY=1;exitDx=0;exitDy=0;entryX=0.5;entryY=0;entryDx=0;entryDy=0;" edge="1" parent="SFGpZlkl2txLwvG6TFmr-96" source="roh6c2qE-MrcPQRFV2aa-184" target="roh6c2qE-MrcPQRFV2aa-188">
          <mxGeometry relative="1" as="geometry">
            <mxPoint x="57" y="1008" as="targetPoint" />
          </mxGeometry>
        </mxCell>
        <mxCell id="roh6c2qE-MrcPQRFV2aa-190" style="edgeStyle=orthogonalEdgeStyle;rounded=0;orthogonalLoop=1;jettySize=auto;html=1;exitX=0.5;exitY=1;exitDx=0;exitDy=0;" edge="1" parent="SFGpZlkl2txLwvG6TFmr-96" source="roh6c2qE-MrcPQRFV2aa-184" target="roh6c2qE-MrcPQRFV2aa-187">
          <mxGeometry relative="1" as="geometry" />
        </mxCell>
        <mxCell id="roh6c2qE-MrcPQRFV2aa-184" value="系统发育树序列插入" style="rounded=0;whiteSpace=wrap;html=1;" vertex="1" parent="SFGpZlkl2txLwvG6TFmr-96">
          <mxGeometry x="79" y="862" width="120" height="28" as="geometry" />
        </mxCell>
        <mxCell id="roh6c2qE-MrcPQRFV2aa-185" style="edgeStyle=orthogonalEdgeStyle;rounded=0;orthogonalLoop=1;jettySize=auto;html=1;exitX=0.5;exitY=1;exitDx=0;exitDy=0;entryX=0.5;entryY=0;entryDx=0;entryDy=0;" edge="1" parent="SFGpZlkl2txLwvG6TFmr-96" source="roh6c2qE-MrcPQRFV2aa-164" target="roh6c2qE-MrcPQRFV2aa-184">
          <mxGeometry relative="1" as="geometry" />
        </mxCell>
        <mxCell id="roh6c2qE-MrcPQRFV2aa-192" style="edgeStyle=orthogonalEdgeStyle;rounded=0;orthogonalLoop=1;jettySize=auto;html=1;exitX=0.5;exitY=1;exitDx=0;exitDy=0;entryX=0.5;entryY=0;entryDx=0;entryDy=0;fillColor=#e1d5e7;strokeColor=#9673a6;strokeWidth=2;" edge="1" parent="SFGpZlkl2txLwvG6TFmr-96" source="roh6c2qE-MrcPQRFV2aa-187" target="SFGpZlkl2txLwvG6TFmr-119">
          <mxGeometry relative="1" as="geometry">
            <mxPoint x="137" y="1011" as="targetPoint" />
          </mxGeometry>
        </mxCell>
        <mxCell id="roh6c2qE-MrcPQRFV2aa-191" style="edgeStyle=orthogonalEdgeStyle;rounded=0;orthogonalLoop=1;jettySize=auto;html=1;exitX=0.5;exitY=1;exitDx=0;exitDy=0;entryX=0.5;entryY=0;entryDx=0;entryDy=0;fillColor=#e1d5e7;strokeColor=#9673a6;strokeWidth=2;" edge="1" parent="SFGpZlkl2txLwvG6TFmr-96" source="roh6c2qE-MrcPQRFV2aa-188" target="SFGpZlkl2txLwvG6TFmr-119">
          <mxGeometry relative="1" as="geometry" />
        </mxCell>
        <mxCell id="roh6c2qE-MrcPQRFV2aa-196" value="" style="group" vertex="1" connectable="0" parent="SFGpZlkl2txLwvG6TFmr-96">
          <mxGeometry x="-6" y="946" width="306" height="29" as="geometry" />
        </mxCell>
        <mxCell id="roh6c2qE-MrcPQRFV2aa-187" value="根据进化距离划分物种" style="rounded=0;whiteSpace=wrap;html=1;" vertex="1" parent="roh6c2qE-MrcPQRFV2aa-196">
          <mxGeometry x="158" width="133" height="29" as="geometry" />
        </mxCell>
        <mxCell id="roh6c2qE-MrcPQRFV2aa-188" value="根据近缘种确定新名" style="rounded=0;whiteSpace=wrap;html=1;" vertex="1" parent="roh6c2qE-MrcPQRFV2aa-196">
          <mxGeometry width="133" height="29" as="geometry" />
        </mxCell>
        <mxCell id="roh6c2qE-MrcPQRFV2aa-218" style="edgeStyle=orthogonalEdgeStyle;rounded=0;orthogonalLoop=1;jettySize=auto;html=1;exitX=0.5;exitY=0;exitDx=0;exitDy=0;entryX=1;entryY=0.5;entryDx=0;entryDy=0;" edge="1" parent="SFGpZlkl2txLwvG6TFmr-96" source="SFGpZlkl2txLwvG6TFmr-121" target="fdz2JXnDWoETyJIV6Ixd-73">
          <mxGeometry relative="1" as="geometry" />
        </mxCell>
        <mxCell id="roh6c2qE-MrcPQRFV2aa-181" style="edgeStyle=orthogonalEdgeStyle;rounded=0;orthogonalLoop=1;jettySize=auto;html=1;exitX=0.5;exitY=1;exitDx=0;exitDy=0;entryX=0;entryY=0.5;entryDx=0;entryDy=0;" edge="1" parent="wX_MCLOSpyru5hPgQ0eP-75" source="roh6c2qE-MrcPQRFV2aa-151" target="roh6c2qE-MrcPQRFV2aa-135">
          <mxGeometry relative="1" as="geometry" />
        </mxCell>
        <mxCell id="roh6c2qE-MrcPQRFV2aa-151" value="蛋白序列比对建树" style="swimlane;whiteSpace=wrap;html=1;" vertex="1" parent="wX_MCLOSpyru5hPgQ0eP-75">
          <mxGeometry x="55" y="450" width="200" height="200" as="geometry" />
        </mxCell>
        <mxCell id="roh6c2qE-MrcPQRFV2aa-162" value="" style="group" vertex="1" connectable="0" parent="roh6c2qE-MrcPQRFV2aa-151">
          <mxGeometry x="40" y="35.25" width="120" height="155.5" as="geometry" />
        </mxCell>
        <mxCell id="roh6c2qE-MrcPQRFV2aa-154" value="mafft进行多序列比对" style="rounded=0;whiteSpace=wrap;html=1;fontSize=10;" vertex="1" parent="roh6c2qE-MrcPQRFV2aa-162">
          <mxGeometry width="120" height="20" as="geometry" />
        </mxCell>
        <mxCell id="roh6c2qE-MrcPQRFV2aa-155" value="BMGE提取保守区域" style="rounded=0;whiteSpace=wrap;html=1;fontSize=10;" vertex="1" parent="roh6c2qE-MrcPQRFV2aa-162">
          <mxGeometry y="45.5" width="120" height="20" as="geometry" />
        </mxCell>
        <mxCell id="roh6c2qE-MrcPQRFV2aa-156" value="保守区域拼接" style="rounded=0;whiteSpace=wrap;html=1;fontSize=10;" vertex="1" parent="roh6c2qE-MrcPQRFV2aa-162">
          <mxGeometry y="90.5" width="120" height="20" as="geometry" />
        </mxCell>
        <mxCell id="roh6c2qE-MrcPQRFV2aa-160" value="Fasttree或iqtree建树" style="rounded=0;whiteSpace=wrap;html=1;fontSize=10;" vertex="1" parent="roh6c2qE-MrcPQRFV2aa-162">
          <mxGeometry y="135.5" width="120" height="20" as="geometry" />
        </mxCell>
        <mxCell id="roh6c2qE-MrcPQRFV2aa-157" style="edgeStyle=orthogonalEdgeStyle;rounded=0;orthogonalLoop=1;jettySize=auto;html=1;exitX=0.5;exitY=1;exitDx=0;exitDy=0;entryX=0.5;entryY=0;entryDx=0;entryDy=0;" edge="1" parent="roh6c2qE-MrcPQRFV2aa-162" source="roh6c2qE-MrcPQRFV2aa-154" target="roh6c2qE-MrcPQRFV2aa-155">
          <mxGeometry relative="1" as="geometry" />
        </mxCell>
        <mxCell id="roh6c2qE-MrcPQRFV2aa-159" style="edgeStyle=orthogonalEdgeStyle;rounded=0;orthogonalLoop=1;jettySize=auto;html=1;exitX=0.5;exitY=1;exitDx=0;exitDy=0;entryX=0.5;entryY=0;entryDx=0;entryDy=0;" edge="1" parent="roh6c2qE-MrcPQRFV2aa-162" source="roh6c2qE-MrcPQRFV2aa-155" target="roh6c2qE-MrcPQRFV2aa-156">
          <mxGeometry relative="1" as="geometry" />
        </mxCell>
        <mxCell id="roh6c2qE-MrcPQRFV2aa-161" style="edgeStyle=orthogonalEdgeStyle;rounded=0;orthogonalLoop=1;jettySize=auto;html=1;exitX=0.5;exitY=1;exitDx=0;exitDy=0;entryX=0.5;entryY=0;entryDx=0;entryDy=0;" edge="1" parent="roh6c2qE-MrcPQRFV2aa-162" source="roh6c2qE-MrcPQRFV2aa-156" target="roh6c2qE-MrcPQRFV2aa-160">
          <mxGeometry relative="1" as="geometry" />
        </mxCell>
        <mxCell id="roh6c2qE-MrcPQRFV2aa-152" style="edgeStyle=orthogonalEdgeStyle;rounded=0;orthogonalLoop=1;jettySize=auto;html=1;exitX=0;exitY=0.5;exitDx=0;exitDy=0;entryX=0.5;entryY=0;entryDx=0;entryDy=0;" edge="1" parent="wX_MCLOSpyru5hPgQ0eP-75" source="roh6c2qE-MrcPQRFV2aa-142" target="roh6c2qE-MrcPQRFV2aa-151">
          <mxGeometry relative="1" as="geometry" />
        </mxCell>
        <mxCell id="roh6c2qE-MrcPQRFV2aa-210" value="功能注释" style="rounded=1;whiteSpace=wrap;html=1;" vertex="1" parent="wX_MCLOSpyru5hPgQ0eP-75">
          <mxGeometry x="75" y="1060" width="90" height="31" as="geometry" />
        </mxCell>
        <mxCell id="roh6c2qE-MrcPQRFV2aa-211" style="edgeStyle=orthogonalEdgeStyle;rounded=0;orthogonalLoop=1;jettySize=auto;html=1;exitX=0;exitY=0.5;exitDx=0;exitDy=0;entryX=0.5;entryY=0;entryDx=0;entryDy=0;" edge="1" parent="wX_MCLOSpyru5hPgQ0eP-75" source="roh6c2qE-MrcPQRFV2aa-184" target="roh6c2qE-MrcPQRFV2aa-210">
          <mxGeometry relative="1" as="geometry" />
        </mxCell>
        <mxCell id="roh6c2qE-MrcPQRFV2aa-212" style="edgeStyle=orthogonalEdgeStyle;rounded=0;orthogonalLoop=1;jettySize=auto;html=1;exitX=0;exitY=0.5;exitDx=0;exitDy=0;entryX=1;entryY=0.5;entryDx=0;entryDy=0;strokeWidth=4;dashed=1;" edge="1" parent="wX_MCLOSpyru5hPgQ0eP-75" source="SFGpZlkl2txLwvG6TFmr-119" target="roh6c2qE-MrcPQRFV2aa-210">
          <mxGeometry relative="1" as="geometry" />
        </mxCell>
        <mxCell id="roh6c2qE-MrcPQRFV2aa-166" value="PICRSUt2 进化树插入参考文件" style="text;html=1;strokeColor=none;fillColor=none;align=center;verticalAlign=middle;whiteSpace=wrap;rounded=0;" vertex="1" parent="1">
          <mxGeometry x="-125" y="403" width="130" height="30" as="geometry" />
        </mxCell>
      </root>
    </mxGraphModel>
  </diagram>
  <diagram id="5ZBbgUldzKcsNM9U_WQJ" name="第 2 页">
    <mxGraphModel dx="2989" dy="3893" grid="1" gridSize="10" guides="1" tooltips="1" connect="1" arrows="1" fold="1" page="1" pageScale="1" pageWidth="827" pageHeight="1169" math="0" shadow="0">
      <root>
        <mxCell id="0" />
        <mxCell id="1" parent="0" />
        <mxCell id="ylwynmjivRgucbpBwMR8-1" style="edgeStyle=orthogonalEdgeStyle;rounded=0;orthogonalLoop=1;jettySize=auto;html=1;exitX=0.5;exitY=1;exitDx=0;exitDy=0;entryX=0.5;entryY=0;entryDx=0;entryDy=0;" edge="1" parent="1" target="ylwynmjivRgucbpBwMR8-50">
          <mxGeometry relative="1" as="geometry">
            <mxPoint x="3157" y="-123" as="sourcePoint" />
          </mxGeometry>
        </mxCell>
        <mxCell id="ylwynmjivRgucbpBwMR8-2" value="测试用例数据" style="swimlane;whiteSpace=wrap;html=1;" vertex="1" parent="1">
          <mxGeometry x="2996" y="573" width="315" height="229" as="geometry">
            <mxRectangle x="1320" y="1" width="110" height="30" as="alternateBounds" />
          </mxGeometry>
        </mxCell>
        <mxCell id="ylwynmjivRgucbpBwMR8-3" value="SILVA&lt;br&gt;分类物种" style="rounded=0;whiteSpace=wrap;html=1;fontSize=12;container=0;" vertex="1" parent="ylwynmjivRgucbpBwMR8-2">
          <mxGeometry x="26" y="-880.75" width="121.75" height="37.5" as="geometry" />
        </mxCell>
        <mxCell id="ylwynmjivRgucbpBwMR8-4" value="" style="edgeStyle=orthogonalEdgeStyle;rounded=0;orthogonalLoop=1;jettySize=auto;html=1;" edge="1" parent="ylwynmjivRgucbpBwMR8-2" source="ylwynmjivRgucbpBwMR8-5" target="ylwynmjivRgucbpBwMR8-3">
          <mxGeometry relative="1" as="geometry" />
        </mxCell>
        <mxCell id="ylwynmjivRgucbpBwMR8-5" value="Refseq&lt;br&gt;分类物种" style="rounded=0;whiteSpace=wrap;html=1;fontSize=12;container=0;" vertex="1" parent="ylwynmjivRgucbpBwMR8-2">
          <mxGeometry x="26" y="-837.75" width="121.75" height="37.5" as="geometry" />
        </mxCell>
        <mxCell id="ylwynmjivRgucbpBwMR8-6" value="Greengene2013&lt;br style=&quot;font-size: 12px;&quot;&gt;分类物种" style="rounded=0;whiteSpace=wrap;html=1;fontSize=12;container=0;" vertex="1" parent="ylwynmjivRgucbpBwMR8-2">
          <mxGeometry x="26" y="-794.75" width="121.75" height="37.5" as="geometry" />
        </mxCell>
        <mxCell id="ylwynmjivRgucbpBwMR8-7" value="Greengene2022&lt;br style=&quot;font-size: 12px;&quot;&gt;分类物种" style="rounded=0;whiteSpace=wrap;html=1;fontSize=12;container=0;" vertex="1" parent="ylwynmjivRgucbpBwMR8-2">
          <mxGeometry x="26" y="-752" width="121.75" height="37.5" as="geometry" />
        </mxCell>
        <mxCell id="ylwynmjivRgucbpBwMR8-8" style="edgeStyle=orthogonalEdgeStyle;rounded=0;orthogonalLoop=1;jettySize=auto;html=1;fontSize=12;startSize=8;endSize=8;entryX=0.5;entryY=0;entryDx=0;entryDy=0;" edge="1" parent="ylwynmjivRgucbpBwMR8-2" target="ylwynmjivRgucbpBwMR8-14">
          <mxGeometry relative="1" as="geometry">
            <mxPoint x="226" y="-843" as="targetPoint" />
            <mxPoint x="166" y="-856" as="sourcePoint" />
          </mxGeometry>
        </mxCell>
        <mxCell id="ylwynmjivRgucbpBwMR8-9" value="&lt;font style=&quot;font-size: 12px;&quot;&gt;跨库共名物种&lt;/font&gt;" style="edgeLabel;html=1;align=center;verticalAlign=middle;resizable=0;points=[];fontSize=16;container=0;" vertex="1" connectable="0" parent="ylwynmjivRgucbpBwMR8-8">
          <mxGeometry x="0.0104" y="-1" relative="1" as="geometry">
            <mxPoint x="-24" y="-3" as="offset" />
          </mxGeometry>
        </mxCell>
        <mxCell id="ylwynmjivRgucbpBwMR8-10" value="" style="shape=curlyBracket;whiteSpace=wrap;html=1;rounded=1;flipH=1;labelPosition=right;verticalLabelPosition=middle;align=left;verticalAlign=middle;fontSize=16;rotation=0;size=0;container=0;" vertex="1" parent="ylwynmjivRgucbpBwMR8-2">
          <mxGeometry x="156" y="-874.5" width="7.25" height="160" as="geometry" />
        </mxCell>
        <mxCell id="ylwynmjivRgucbpBwMR8-11" value="&lt;font style=&quot;font-size: 12px;&quot;&gt;Ginder&lt;br&gt;模拟扩增子测序&lt;/font&gt;" style="rounded=0;whiteSpace=wrap;html=1;fontSize=13;container=0;" vertex="1" parent="ylwynmjivRgucbpBwMR8-2">
          <mxGeometry x="205" y="-763.5" width="90" height="37.5" as="geometry" />
        </mxCell>
        <mxCell id="ylwynmjivRgucbpBwMR8-12" style="edgeStyle=none;curved=1;rounded=0;orthogonalLoop=1;jettySize=auto;html=1;entryX=0;entryY=0.5;entryDx=0;entryDy=0;fontSize=12;startSize=8;endSize=8;" edge="1" parent="ylwynmjivRgucbpBwMR8-2">
          <mxGeometry relative="1" as="geometry">
            <mxPoint x="124.99999999997272" y="-666.25" as="sourcePoint" />
          </mxGeometry>
        </mxCell>
        <mxCell id="ylwynmjivRgucbpBwMR8-13" style="edgeStyle=none;curved=1;rounded=0;orthogonalLoop=1;jettySize=auto;html=1;exitX=0.5;exitY=1;exitDx=0;exitDy=0;entryX=0.5;entryY=0;entryDx=0;entryDy=0;fontSize=12;startSize=8;endSize=8;" edge="1" parent="ylwynmjivRgucbpBwMR8-2" source="ylwynmjivRgucbpBwMR8-14" target="ylwynmjivRgucbpBwMR8-11">
          <mxGeometry relative="1" as="geometry" />
        </mxCell>
        <mxCell id="ylwynmjivRgucbpBwMR8-14" value="&lt;span style=&quot;font-size: 12px;&quot;&gt;对应16S全长&lt;br&gt;序列（取最长）&lt;/span&gt;" style="rounded=0;whiteSpace=wrap;html=1;fontSize=13;container=0;" vertex="1" parent="ylwynmjivRgucbpBwMR8-2">
          <mxGeometry x="205" y="-813.25" width="90" height="37.5" as="geometry" />
        </mxCell>
        <mxCell id="ylwynmjivRgucbpBwMR8-15" value="从NCBI下载基因组" style="swimlane;whiteSpace=wrap;html=1;container=0;" vertex="1" parent="1">
          <mxGeometry x="2270" y="-322" width="342.5" height="150" as="geometry">
            <mxRectangle x="170" y="50" width="140" height="30" as="alternateBounds" />
          </mxGeometry>
        </mxCell>
        <mxCell id="ylwynmjivRgucbpBwMR8-16" value="可能的RNA序列" style="rounded=0;whiteSpace=wrap;html=1;container=0;" vertex="1" parent="1">
          <mxGeometry x="2334" y="-58" width="120" height="20" as="geometry" />
        </mxCell>
        <mxCell id="ylwynmjivRgucbpBwMR8-17" value="16sRNA序列" style="rounded=0;whiteSpace=wrap;html=1;container=0;" vertex="1" parent="1">
          <mxGeometry x="2334" y="-18" width="120" height="20" as="geometry" />
        </mxCell>
        <mxCell id="ylwynmjivRgucbpBwMR8-18" value="注：部分基因组可能未提取出16s序列" style="text;html=1;strokeColor=none;fillColor=none;align=center;verticalAlign=middle;whiteSpace=wrap;rounded=0;container=0;" vertex="1" parent="1">
          <mxGeometry x="2467" y="-63" width="207.5" height="30" as="geometry" />
        </mxCell>
        <mxCell id="ylwynmjivRgucbpBwMR8-19" value="注：同一基因组可能出现多条16s序列，&lt;br&gt;实际操作中全部纳入数据集" style="text;html=1;strokeColor=none;fillColor=none;align=center;verticalAlign=middle;whiteSpace=wrap;rounded=0;container=0;" vertex="1" parent="1">
          <mxGeometry x="2467" y="-18" width="220" height="30" as="geometry" />
        </mxCell>
        <mxCell id="ylwynmjivRgucbpBwMR8-20" value="超种构建" style="swimlane;whiteSpace=wrap;html=1;container=0;" vertex="1" parent="1">
          <mxGeometry x="2099" y="172" width="200" height="340" as="geometry">
            <mxRectangle y="510" width="90" height="30" as="alternateBounds" />
          </mxGeometry>
        </mxCell>
        <mxCell id="ylwynmjivRgucbpBwMR8-21" value="初步物种注释" style="rounded=1;whiteSpace=wrap;html=1;fontSize=12;container=0;" vertex="1" parent="1">
          <mxGeometry x="2574" y="673" width="89.75" height="30" as="geometry" />
        </mxCell>
        <mxCell id="ylwynmjivRgucbpBwMR8-22" value="分类器构建" style="rounded=0;whiteSpace=wrap;html=1;container=0;" vertex="1" parent="1">
          <mxGeometry x="2334" y="22" width="120" height="20" as="geometry" />
        </mxCell>
        <mxCell id="ylwynmjivRgucbpBwMR8-23" style="edgeStyle=orthogonalEdgeStyle;rounded=0;orthogonalLoop=1;jettySize=auto;html=1;exitX=1;exitY=0.5;exitDx=0;exitDy=0;startArrow=classic;startFill=1;dashed=1;dashPattern=8 8;fillColor=#dae8fc;strokeColor=#6c8ebf;" edge="1" parent="1" source="ylwynmjivRgucbpBwMR8-27" target="ylwynmjivRgucbpBwMR8-31">
          <mxGeometry relative="1" as="geometry" />
        </mxCell>
        <mxCell id="ylwynmjivRgucbpBwMR8-24" value="比较" style="edgeLabel;html=1;align=center;verticalAlign=middle;resizable=0;points=[];container=0;" vertex="1" connectable="0" parent="ylwynmjivRgucbpBwMR8-23">
          <mxGeometry x="-0.2022" y="-1" relative="1" as="geometry">
            <mxPoint x="6" y="-2" as="offset" />
          </mxGeometry>
        </mxCell>
        <mxCell id="ylwynmjivRgucbpBwMR8-25" style="edgeStyle=orthogonalEdgeStyle;rounded=0;orthogonalLoop=1;jettySize=auto;html=1;exitX=0.5;exitY=1;exitDx=0;exitDy=0;entryX=0.5;entryY=0;entryDx=0;entryDy=0;" edge="1" parent="1" source="ylwynmjivRgucbpBwMR8-27" target="ylwynmjivRgucbpBwMR8-20">
          <mxGeometry relative="1" as="geometry" />
        </mxCell>
        <mxCell id="ylwynmjivRgucbpBwMR8-26" style="edgeStyle=orthogonalEdgeStyle;rounded=0;orthogonalLoop=1;jettySize=auto;html=1;exitX=0.5;exitY=1;exitDx=0;exitDy=0;entryX=0.5;entryY=0;entryDx=0;entryDy=0;" edge="1" parent="1" source="ylwynmjivRgucbpBwMR8-27" target="ylwynmjivRgucbpBwMR8-36">
          <mxGeometry relative="1" as="geometry">
            <Array as="points">
              <mxPoint x="2198" y="143" />
              <mxPoint x="2317" y="143" />
            </Array>
          </mxGeometry>
        </mxCell>
        <mxCell id="ylwynmjivRgucbpBwMR8-27" value="贝叶斯分类器" style="rounded=0;whiteSpace=wrap;html=1;container=0;" vertex="1" parent="1">
          <mxGeometry x="2153" y="82" width="90" height="30" as="geometry" />
        </mxCell>
        <mxCell id="ylwynmjivRgucbpBwMR8-28" style="edgeStyle=orthogonalEdgeStyle;rounded=0;orthogonalLoop=1;jettySize=auto;html=1;exitX=0.5;exitY=1;exitDx=0;exitDy=0;entryX=0.5;entryY=0;entryDx=0;entryDy=0;" edge="1" parent="1" source="ylwynmjivRgucbpBwMR8-31" target="ylwynmjivRgucbpBwMR8-85">
          <mxGeometry relative="1" as="geometry" />
        </mxCell>
        <mxCell id="ylwynmjivRgucbpBwMR8-29" style="edgeStyle=orthogonalEdgeStyle;rounded=0;orthogonalLoop=1;jettySize=auto;html=1;exitX=1;exitY=0.5;exitDx=0;exitDy=0;startArrow=classic;startFill=1;dashed=1;dashPattern=8 8;fillColor=#dae8fc;strokeColor=#6c8ebf;" edge="1" parent="1" source="ylwynmjivRgucbpBwMR8-31" target="ylwynmjivRgucbpBwMR8-34">
          <mxGeometry relative="1" as="geometry" />
        </mxCell>
        <mxCell id="ylwynmjivRgucbpBwMR8-30" value="比较" style="edgeLabel;html=1;align=center;verticalAlign=middle;resizable=0;points=[];container=0;" vertex="1" connectable="0" parent="ylwynmjivRgucbpBwMR8-29">
          <mxGeometry x="-0.0495" relative="1" as="geometry">
            <mxPoint as="offset" />
          </mxGeometry>
        </mxCell>
        <mxCell id="ylwynmjivRgucbpBwMR8-31" value="BLAST分类器" style="rounded=0;whiteSpace=wrap;html=1;container=0;" vertex="1" parent="1">
          <mxGeometry x="2383" y="82" width="90" height="30" as="geometry" />
        </mxCell>
        <mxCell id="ylwynmjivRgucbpBwMR8-32" style="edgeStyle=orthogonalEdgeStyle;rounded=0;orthogonalLoop=1;jettySize=auto;html=1;exitX=1;exitY=0.5;exitDx=0;exitDy=0;entryX=0;entryY=0.5;entryDx=0;entryDy=0;dashed=1;dashPattern=8 8;startArrow=classic;startFill=1;fillColor=#dae8fc;strokeColor=#6c8ebf;" edge="1" parent="1" source="ylwynmjivRgucbpBwMR8-34" target="ylwynmjivRgucbpBwMR8-54">
          <mxGeometry relative="1" as="geometry" />
        </mxCell>
        <mxCell id="ylwynmjivRgucbpBwMR8-33" value="比较" style="edgeLabel;html=1;align=center;verticalAlign=middle;resizable=0;points=[];container=0;" vertex="1" connectable="0" parent="ylwynmjivRgucbpBwMR8-32">
          <mxGeometry x="0.0617" y="2" relative="1" as="geometry">
            <mxPoint x="-5" as="offset" />
          </mxGeometry>
        </mxCell>
        <mxCell id="ylwynmjivRgucbpBwMR8-34" value="SPINGO分类器" style="rounded=0;whiteSpace=wrap;html=1;container=0;" vertex="1" parent="1">
          <mxGeometry x="2595" y="82" width="90" height="30" as="geometry" />
        </mxCell>
        <mxCell id="ylwynmjivRgucbpBwMR8-35" style="edgeStyle=orthogonalEdgeStyle;rounded=0;orthogonalLoop=1;jettySize=auto;html=1;exitX=0.5;exitY=1;exitDx=0;exitDy=0;entryX=0.25;entryY=0;entryDx=0;entryDy=0;fillColor=#e1d5e7;strokeColor=#9673a6;strokeWidth=2;" edge="1" parent="1" source="ylwynmjivRgucbpBwMR8-36" target="ylwynmjivRgucbpBwMR8-21">
          <mxGeometry relative="1" as="geometry" />
        </mxCell>
        <mxCell id="ylwynmjivRgucbpBwMR8-36" value="无超种分类器" style="rounded=0;whiteSpace=wrap;html=1;container=0;" vertex="1" parent="1">
          <mxGeometry x="2272" y="525" width="90" height="30" as="geometry" />
        </mxCell>
        <mxCell id="ylwynmjivRgucbpBwMR8-37" style="edgeStyle=orthogonalEdgeStyle;rounded=0;orthogonalLoop=1;jettySize=auto;html=1;exitX=0.5;exitY=1;exitDx=0;exitDy=0;entryX=0.25;entryY=0;entryDx=0;entryDy=0;fillColor=#e1d5e7;strokeColor=#9673a6;strokeWidth=2;" edge="1" parent="1" source="ylwynmjivRgucbpBwMR8-38" target="ylwynmjivRgucbpBwMR8-21">
          <mxGeometry relative="1" as="geometry" />
        </mxCell>
        <mxCell id="ylwynmjivRgucbpBwMR8-38" value="超种分类器" style="rounded=0;whiteSpace=wrap;html=1;container=0;" vertex="1" parent="1">
          <mxGeometry x="2154" y="525" width="95" height="30" as="geometry" />
        </mxCell>
        <mxCell id="ylwynmjivRgucbpBwMR8-39" style="edgeStyle=orthogonalEdgeStyle;rounded=0;orthogonalLoop=1;jettySize=auto;html=1;exitX=0.5;exitY=1;exitDx=0;exitDy=0;entryX=0.5;entryY=0;entryDx=0;entryDy=0;" edge="1" parent="1" source="ylwynmjivRgucbpBwMR8-16" target="ylwynmjivRgucbpBwMR8-17">
          <mxGeometry relative="1" as="geometry" />
        </mxCell>
        <mxCell id="ylwynmjivRgucbpBwMR8-40" style="edgeStyle=orthogonalEdgeStyle;rounded=0;orthogonalLoop=1;jettySize=auto;html=1;exitX=0.5;exitY=1;exitDx=0;exitDy=0;" edge="1" parent="1" source="ylwynmjivRgucbpBwMR8-17" target="ylwynmjivRgucbpBwMR8-22">
          <mxGeometry relative="1" as="geometry" />
        </mxCell>
        <mxCell id="ylwynmjivRgucbpBwMR8-41" style="edgeStyle=orthogonalEdgeStyle;rounded=0;orthogonalLoop=1;jettySize=auto;html=1;exitX=0.5;exitY=1;exitDx=0;exitDy=0;entryX=0.5;entryY=0;entryDx=0;entryDy=0;" edge="1" parent="1" source="ylwynmjivRgucbpBwMR8-22" target="ylwynmjivRgucbpBwMR8-27">
          <mxGeometry relative="1" as="geometry" />
        </mxCell>
        <mxCell id="ylwynmjivRgucbpBwMR8-42" style="edgeStyle=orthogonalEdgeStyle;rounded=0;orthogonalLoop=1;jettySize=auto;html=1;exitX=0.5;exitY=1;exitDx=0;exitDy=0;entryX=0.5;entryY=0;entryDx=0;entryDy=0;" edge="1" parent="1" source="ylwynmjivRgucbpBwMR8-22" target="ylwynmjivRgucbpBwMR8-31">
          <mxGeometry relative="1" as="geometry" />
        </mxCell>
        <mxCell id="ylwynmjivRgucbpBwMR8-43" style="edgeStyle=orthogonalEdgeStyle;rounded=0;orthogonalLoop=1;jettySize=auto;html=1;exitX=0.5;exitY=1;exitDx=0;exitDy=0;" edge="1" parent="1" source="ylwynmjivRgucbpBwMR8-22" target="ylwynmjivRgucbpBwMR8-34">
          <mxGeometry relative="1" as="geometry" />
        </mxCell>
        <mxCell id="ylwynmjivRgucbpBwMR8-44" style="edgeStyle=orthogonalEdgeStyle;rounded=0;orthogonalLoop=1;jettySize=auto;html=1;exitX=0.5;exitY=1;exitDx=0;exitDy=0;entryX=0.5;entryY=0;entryDx=0;entryDy=0;" edge="1" parent="1" source="ylwynmjivRgucbpBwMR8-81" target="ylwynmjivRgucbpBwMR8-38">
          <mxGeometry relative="1" as="geometry" />
        </mxCell>
        <mxCell id="ylwynmjivRgucbpBwMR8-45" style="edgeStyle=orthogonalEdgeStyle;rounded=0;orthogonalLoop=1;jettySize=auto;html=1;exitX=0.5;exitY=1;exitDx=0;exitDy=0;entryX=0.5;entryY=0;entryDx=0;entryDy=0;" edge="1" parent="1" source="ylwynmjivRgucbpBwMR8-82" target="ylwynmjivRgucbpBwMR8-38">
          <mxGeometry relative="1" as="geometry">
            <mxPoint x="2401" y="487" as="targetPoint" />
          </mxGeometry>
        </mxCell>
        <mxCell id="ylwynmjivRgucbpBwMR8-46" style="edgeStyle=orthogonalEdgeStyle;rounded=0;orthogonalLoop=1;jettySize=auto;html=1;exitX=0.5;exitY=1;exitDx=0;exitDy=0;entryX=0.5;entryY=0;entryDx=0;entryDy=0;" edge="1" parent="1" source="ylwynmjivRgucbpBwMR8-83" target="ylwynmjivRgucbpBwMR8-38">
          <mxGeometry relative="1" as="geometry">
            <mxPoint x="2401" y="487" as="targetPoint" />
          </mxGeometry>
        </mxCell>
        <mxCell id="ylwynmjivRgucbpBwMR8-47" value="" style="swimlane;startSize=0;container=0;" vertex="1" parent="1">
          <mxGeometry x="2334" y="172" width="183" height="340" as="geometry">
            <mxRectangle x="345" y="510" width="50" height="40" as="alternateBounds" />
          </mxGeometry>
        </mxCell>
        <mxCell id="ylwynmjivRgucbpBwMR8-48" value="" style="swimlane;startSize=0;container=0;" vertex="1" parent="1">
          <mxGeometry x="2543" y="172" width="195" height="340" as="geometry">
            <mxRectangle x="360" y="510" width="50" height="40" as="alternateBounds" />
          </mxGeometry>
        </mxCell>
        <mxCell id="ylwynmjivRgucbpBwMR8-49" style="edgeStyle=orthogonalEdgeStyle;rounded=0;orthogonalLoop=1;jettySize=auto;html=1;exitX=0.5;exitY=1;exitDx=0;exitDy=0;entryX=0.5;entryY=0;entryDx=0;entryDy=0;" edge="1" parent="1" source="ylwynmjivRgucbpBwMR8-34" target="ylwynmjivRgucbpBwMR8-89">
          <mxGeometry relative="1" as="geometry" />
        </mxCell>
        <mxCell id="ylwynmjivRgucbpBwMR8-50" value="原始测序数据&lt;br&gt;（fastq/fastq.gz)" style="rounded=1;whiteSpace=wrap;html=1;container=0;" vertex="1" parent="1">
          <mxGeometry x="3097" y="-59" width="120" height="40" as="geometry" />
        </mxCell>
        <mxCell id="ylwynmjivRgucbpBwMR8-51" style="edgeStyle=orthogonalEdgeStyle;rounded=0;orthogonalLoop=1;jettySize=auto;html=1;exitX=0.5;exitY=1;exitDx=0;exitDy=0;entryX=0.5;entryY=0;entryDx=0;entryDy=0;fillColor=#e1d5e7;strokeColor=#9673a6;strokeWidth=2;" edge="1" parent="1" source="ylwynmjivRgucbpBwMR8-88" target="ylwynmjivRgucbpBwMR8-21">
          <mxGeometry relative="1" as="geometry" />
        </mxCell>
        <mxCell id="ylwynmjivRgucbpBwMR8-52" style="edgeStyle=orthogonalEdgeStyle;rounded=0;orthogonalLoop=1;jettySize=auto;html=1;exitX=0.5;exitY=1;exitDx=0;exitDy=0;entryX=0.75;entryY=0;entryDx=0;entryDy=0;fillColor=#e1d5e7;strokeColor=#9673a6;strokeWidth=2;" edge="1" parent="1" source="ylwynmjivRgucbpBwMR8-90" target="ylwynmjivRgucbpBwMR8-21">
          <mxGeometry relative="1" as="geometry" />
        </mxCell>
        <mxCell id="ylwynmjivRgucbpBwMR8-53" style="edgeStyle=orthogonalEdgeStyle;rounded=0;orthogonalLoop=1;jettySize=auto;html=1;exitX=0.5;exitY=1;exitDx=0;exitDy=0;entryX=0.5;entryY=0;entryDx=0;entryDy=0;fillColor=#e1d5e7;strokeColor=#9673a6;strokeWidth=2;" edge="1" parent="1" source="ylwynmjivRgucbpBwMR8-54" target="ylwynmjivRgucbpBwMR8-55">
          <mxGeometry relative="1" as="geometry" />
        </mxCell>
        <mxCell id="ylwynmjivRgucbpBwMR8-54" value="同类贝叶斯分类器&lt;br style=&quot;font-size: 13px;&quot;&gt;SILVA/Greengene&lt;br style=&quot;font-size: 13px;&quot;&gt;（From Qiime）" style="rounded=0;whiteSpace=wrap;html=1;fontSize=13;container=0;" vertex="1" parent="1">
          <mxGeometry x="2816" y="72" width="128" height="50" as="geometry" />
        </mxCell>
        <mxCell id="ylwynmjivRgucbpBwMR8-55" value="物种注释" style="rounded=1;whiteSpace=wrap;html=1;container=0;" vertex="1" parent="1">
          <mxGeometry x="2830.25" y="603" width="100.5" height="31" as="geometry" />
        </mxCell>
        <mxCell id="ylwynmjivRgucbpBwMR8-56" value="原始测序数据&lt;br&gt;（fastq/fastq.gz)" style="rounded=1;whiteSpace=wrap;html=1;container=0;" vertex="1" parent="1">
          <mxGeometry x="3330" y="668" width="120" height="40" as="geometry" />
        </mxCell>
        <mxCell id="ylwynmjivRgucbpBwMR8-57" style="edgeStyle=orthogonalEdgeStyle;rounded=0;orthogonalLoop=1;jettySize=auto;html=1;exitX=0.75;exitY=1;exitDx=0;exitDy=0;entryX=0.5;entryY=0;entryDx=0;entryDy=0;" edge="1" parent="1" source="ylwynmjivRgucbpBwMR8-64" target="ylwynmjivRgucbpBwMR8-16">
          <mxGeometry relative="1" as="geometry" />
        </mxCell>
        <mxCell id="ylwynmjivRgucbpBwMR8-58" value="barrnap工具提取rna片段" style="edgeLabel;html=1;align=center;verticalAlign=middle;resizable=0;points=[];container=0;" vertex="1" connectable="0" parent="ylwynmjivRgucbpBwMR8-57">
          <mxGeometry x="0.013" relative="1" as="geometry">
            <mxPoint as="offset" />
          </mxGeometry>
        </mxCell>
        <mxCell id="ylwynmjivRgucbpBwMR8-59" style="edgeStyle=orthogonalEdgeStyle;rounded=0;orthogonalLoop=1;jettySize=auto;html=1;exitX=0.07;exitY=0.4;exitDx=0;exitDy=0;exitPerimeter=0;" edge="1" parent="1" source="ylwynmjivRgucbpBwMR8-61" target="ylwynmjivRgucbpBwMR8-63">
          <mxGeometry relative="1" as="geometry" />
        </mxCell>
        <mxCell id="ylwynmjivRgucbpBwMR8-60" style="edgeStyle=orthogonalEdgeStyle;rounded=0;orthogonalLoop=1;jettySize=auto;html=1;exitX=0.31;exitY=0.8;exitDx=0;exitDy=0;exitPerimeter=0;entryX=1;entryY=0.5;entryDx=0;entryDy=0;" edge="1" parent="1" source="ylwynmjivRgucbpBwMR8-61" target="ylwynmjivRgucbpBwMR8-64">
          <mxGeometry relative="1" as="geometry">
            <Array as="points">
              <mxPoint x="2521" y="-214" />
              <mxPoint x="2521" y="-200" />
            </Array>
          </mxGeometry>
        </mxCell>
        <mxCell id="ylwynmjivRgucbpBwMR8-61" value="NCBI-Refseq&lt;br&gt;Database" style="ellipse;shape=cloud;whiteSpace=wrap;html=1;container=0;" vertex="1" parent="1">
          <mxGeometry x="2487.5" y="-265.5" width="120" height="75" as="geometry" />
        </mxCell>
        <mxCell id="ylwynmjivRgucbpBwMR8-62" style="edgeStyle=orthogonalEdgeStyle;rounded=0;orthogonalLoop=1;jettySize=auto;html=1;exitX=0.5;exitY=1;exitDx=0;exitDy=0;entryX=0.5;entryY=0;entryDx=0;entryDy=0;" edge="1" parent="1" source="ylwynmjivRgucbpBwMR8-63" target="ylwynmjivRgucbpBwMR8-64">
          <mxGeometry relative="1" as="geometry" />
        </mxCell>
        <mxCell id="ylwynmjivRgucbpBwMR8-63" value="assembly_summary_refseq" style="rounded=0;whiteSpace=wrap;html=1;container=0;" vertex="1" parent="1">
          <mxGeometry x="2284" y="-246" width="160" height="20" as="geometry" />
        </mxCell>
        <mxCell id="ylwynmjivRgucbpBwMR8-64" value="基因组序列" style="rounded=0;whiteSpace=wrap;html=1;container=0;" vertex="1" parent="1">
          <mxGeometry x="2304" y="-210" width="120" height="20" as="geometry" />
        </mxCell>
        <mxCell id="ylwynmjivRgucbpBwMR8-65" value="该文件为索引文件&lt;br&gt;从该文件中获取对应基因组和蛋白组（未使用）路径完成下载" style="text;html=1;strokeColor=none;fillColor=none;align=center;verticalAlign=middle;whiteSpace=wrap;rounded=0;container=0;" vertex="1" parent="1">
          <mxGeometry x="2275" y="-299" width="180" height="50" as="geometry" />
        </mxCell>
        <mxCell id="ylwynmjivRgucbpBwMR8-66" style="edgeStyle=orthogonalEdgeStyle;rounded=0;orthogonalLoop=1;jettySize=auto;html=1;exitX=0.5;exitY=1;exitDx=0;exitDy=0;entryX=0.5;entryY=0;entryDx=0;entryDy=0;" edge="1" parent="1" source="ylwynmjivRgucbpBwMR8-67" target="ylwynmjivRgucbpBwMR8-70">
          <mxGeometry relative="1" as="geometry" />
        </mxCell>
        <mxCell id="ylwynmjivRgucbpBwMR8-67" value="将16s序列按属水平进行分类" style="text;html=1;strokeColor=none;fillColor=none;align=center;verticalAlign=middle;whiteSpace=wrap;rounded=0;container=0;" vertex="1" parent="1">
          <mxGeometry x="2120.75" y="202" width="160" height="30" as="geometry" />
        </mxCell>
        <mxCell id="ylwynmjivRgucbpBwMR8-68" style="edgeStyle=orthogonalEdgeStyle;rounded=0;orthogonalLoop=1;jettySize=auto;html=1;exitX=0.5;exitY=1;exitDx=0;exitDy=0;entryX=0.5;entryY=0;entryDx=0;entryDy=0;" edge="1" parent="1" source="ylwynmjivRgucbpBwMR8-70" target="ylwynmjivRgucbpBwMR8-74">
          <mxGeometry relative="1" as="geometry" />
        </mxCell>
        <mxCell id="ylwynmjivRgucbpBwMR8-69" value="cd-hit -c 0.99 -T 2 -s 0.98 -aL 0.98" style="edgeLabel;html=1;align=center;verticalAlign=middle;resizable=0;points=[];container=0;" vertex="1" connectable="0" parent="ylwynmjivRgucbpBwMR8-68">
          <mxGeometry x="-0.432" y="2" relative="1" as="geometry">
            <mxPoint y="5" as="offset" />
          </mxGeometry>
        </mxCell>
        <mxCell id="ylwynmjivRgucbpBwMR8-70" value="属X16S序列" style="rounded=0;whiteSpace=wrap;html=1;container=0;" vertex="1" parent="1">
          <mxGeometry x="2140.75" y="257" width="120" height="20" as="geometry" />
        </mxCell>
        <mxCell id="ylwynmjivRgucbpBwMR8-71" style="edgeStyle=orthogonalEdgeStyle;rounded=0;orthogonalLoop=1;jettySize=auto;html=1;exitX=0.25;exitY=1;exitDx=0;exitDy=0;entryX=0.5;entryY=0;entryDx=0;entryDy=0;" edge="1" parent="1" source="ylwynmjivRgucbpBwMR8-74" target="ylwynmjivRgucbpBwMR8-76">
          <mxGeometry relative="1" as="geometry" />
        </mxCell>
        <mxCell id="ylwynmjivRgucbpBwMR8-72" style="edgeStyle=orthogonalEdgeStyle;rounded=0;orthogonalLoop=1;jettySize=auto;html=1;exitX=0.5;exitY=1;exitDx=0;exitDy=0;entryX=0.5;entryY=0;entryDx=0;entryDy=0;" edge="1" parent="1" source="ylwynmjivRgucbpBwMR8-74" target="ylwynmjivRgucbpBwMR8-78">
          <mxGeometry relative="1" as="geometry" />
        </mxCell>
        <mxCell id="ylwynmjivRgucbpBwMR8-73" style="edgeStyle=orthogonalEdgeStyle;rounded=0;orthogonalLoop=1;jettySize=auto;html=1;exitX=0.75;exitY=1;exitDx=0;exitDy=0;entryX=0.5;entryY=0;entryDx=0;entryDy=0;" edge="1" parent="1" source="ylwynmjivRgucbpBwMR8-74" target="ylwynmjivRgucbpBwMR8-80">
          <mxGeometry relative="1" as="geometry" />
        </mxCell>
        <mxCell id="ylwynmjivRgucbpBwMR8-74" value="CD-HIT&lt;br&gt;多序列比对聚类" style="rounded=0;whiteSpace=wrap;html=1;container=0;" vertex="1" parent="1">
          <mxGeometry x="2140.75" y="319" width="120" height="30" as="geometry" />
        </mxCell>
        <mxCell id="ylwynmjivRgucbpBwMR8-75" style="edgeStyle=orthogonalEdgeStyle;rounded=0;orthogonalLoop=1;jettySize=auto;html=1;exitX=0.5;exitY=1;exitDx=0;exitDy=0;entryX=0.5;entryY=0;entryDx=0;entryDy=0;" edge="1" parent="1" source="ylwynmjivRgucbpBwMR8-76" target="ylwynmjivRgucbpBwMR8-81">
          <mxGeometry relative="1" as="geometry" />
        </mxCell>
        <mxCell id="ylwynmjivRgucbpBwMR8-76" value="Cluster 1" style="rounded=1;whiteSpace=wrap;html=1;container=0;" vertex="1" parent="1">
          <mxGeometry x="2115" y="369" width="51" height="20" as="geometry" />
        </mxCell>
        <mxCell id="ylwynmjivRgucbpBwMR8-77" style="edgeStyle=orthogonalEdgeStyle;rounded=0;orthogonalLoop=1;jettySize=auto;html=1;exitX=0.5;exitY=1;exitDx=0;exitDy=0;entryX=0.5;entryY=0;entryDx=0;entryDy=0;" edge="1" parent="1" source="ylwynmjivRgucbpBwMR8-78" target="ylwynmjivRgucbpBwMR8-82">
          <mxGeometry relative="1" as="geometry" />
        </mxCell>
        <mxCell id="ylwynmjivRgucbpBwMR8-78" value="..." style="rounded=1;whiteSpace=wrap;html=1;container=0;" vertex="1" parent="1">
          <mxGeometry x="2175.25" y="369" width="51" height="20" as="geometry" />
        </mxCell>
        <mxCell id="ylwynmjivRgucbpBwMR8-79" style="edgeStyle=orthogonalEdgeStyle;rounded=0;orthogonalLoop=1;jettySize=auto;html=1;exitX=0.5;exitY=1;exitDx=0;exitDy=0;entryX=0.5;entryY=0;entryDx=0;entryDy=0;" edge="1" parent="1" source="ylwynmjivRgucbpBwMR8-80" target="ylwynmjivRgucbpBwMR8-83">
          <mxGeometry relative="1" as="geometry" />
        </mxCell>
        <mxCell id="ylwynmjivRgucbpBwMR8-80" value="Cluster x" style="rounded=1;whiteSpace=wrap;html=1;container=0;" vertex="1" parent="1">
          <mxGeometry x="2232" y="369" width="51" height="20" as="geometry" />
        </mxCell>
        <mxCell id="ylwynmjivRgucbpBwMR8-81" value="超种 1" style="rounded=1;whiteSpace=wrap;html=1;container=0;" vertex="1" parent="1">
          <mxGeometry x="2115" y="399" width="51" height="20" as="geometry" />
        </mxCell>
        <mxCell id="ylwynmjivRgucbpBwMR8-82" value="..." style="rounded=1;whiteSpace=wrap;html=1;container=0;" vertex="1" parent="1">
          <mxGeometry x="2175.25" y="399" width="51" height="20" as="geometry" />
        </mxCell>
        <mxCell id="ylwynmjivRgucbpBwMR8-83" value="超种 x" style="rounded=1;whiteSpace=wrap;html=1;container=0;" vertex="1" parent="1">
          <mxGeometry x="2232" y="399" width="51" height="20" as="geometry" />
        </mxCell>
        <mxCell id="ylwynmjivRgucbpBwMR8-84" style="edgeStyle=orthogonalEdgeStyle;rounded=0;orthogonalLoop=1;jettySize=auto;html=1;exitX=0.5;exitY=1;exitDx=0;exitDy=0;entryX=0.5;entryY=0;entryDx=0;entryDy=0;" edge="1" parent="1" source="ylwynmjivRgucbpBwMR8-85" target="ylwynmjivRgucbpBwMR8-87">
          <mxGeometry relative="1" as="geometry" />
        </mxCell>
        <mxCell id="ylwynmjivRgucbpBwMR8-85" value="以Refseq数据构建&lt;br&gt;本地BLAST数据库" style="rounded=0;whiteSpace=wrap;html=1;container=0;" vertex="1" parent="1">
          <mxGeometry x="2368.5" y="197" width="120" height="40" as="geometry" />
        </mxCell>
        <mxCell id="ylwynmjivRgucbpBwMR8-86" style="edgeStyle=orthogonalEdgeStyle;rounded=0;orthogonalLoop=1;jettySize=auto;html=1;exitX=0.5;exitY=1;exitDx=0;exitDy=0;entryX=0.5;entryY=0;entryDx=0;entryDy=0;" edge="1" parent="1" source="ylwynmjivRgucbpBwMR8-87" target="ylwynmjivRgucbpBwMR8-88">
          <mxGeometry relative="1" as="geometry" />
        </mxCell>
        <mxCell id="ylwynmjivRgucbpBwMR8-87" value="Qurey序列与本地数据库序列比对" style="rounded=0;whiteSpace=wrap;html=1;container=0;" vertex="1" parent="1">
          <mxGeometry x="2368.5" y="329" width="120" height="40" as="geometry" />
        </mxCell>
        <mxCell id="ylwynmjivRgucbpBwMR8-88" value="选中比对最长且e-value最小的结果输出" style="rounded=0;whiteSpace=wrap;html=1;container=0;" vertex="1" parent="1">
          <mxGeometry x="2368.5" y="460" width="120" height="40" as="geometry" />
        </mxCell>
        <mxCell id="ylwynmjivRgucbpBwMR8-89" value="每三级Refseq分类数据训练一套分类器" style="rounded=0;whiteSpace=wrap;html=1;container=0;" vertex="1" parent="1">
          <mxGeometry x="2580.5" y="197" width="120" height="40" as="geometry" />
        </mxCell>
        <mxCell id="ylwynmjivRgucbpBwMR8-90" value="合并各分类器结果并输出" style="rounded=0;whiteSpace=wrap;html=1;container=0;" vertex="1" parent="1">
          <mxGeometry x="2573.25" y="460" width="134.5" height="40" as="geometry" />
        </mxCell>
        <mxCell id="ylwynmjivRgucbpBwMR8-91" value="自上而下对序列进行注释&lt;br&gt;未注释的序列使用上一级分类器" style="rounded=0;whiteSpace=wrap;html=1;container=0;" vertex="1" parent="1">
          <mxGeometry x="2550.5" y="322" width="180" height="40" as="geometry" />
        </mxCell>
        <mxCell id="ylwynmjivRgucbpBwMR8-92" style="edgeStyle=orthogonalEdgeStyle;rounded=0;orthogonalLoop=1;jettySize=auto;html=1;exitX=0.5;exitY=1;exitDx=0;exitDy=0;entryX=0.5;entryY=0;entryDx=0;entryDy=0;" edge="1" parent="1" source="ylwynmjivRgucbpBwMR8-89" target="ylwynmjivRgucbpBwMR8-91">
          <mxGeometry relative="1" as="geometry" />
        </mxCell>
        <mxCell id="ylwynmjivRgucbpBwMR8-93" style="edgeStyle=orthogonalEdgeStyle;rounded=0;orthogonalLoop=1;jettySize=auto;html=1;exitX=0.5;exitY=1;exitDx=0;exitDy=0;entryX=0.5;entryY=0;entryDx=0;entryDy=0;" edge="1" parent="1" source="ylwynmjivRgucbpBwMR8-91" target="ylwynmjivRgucbpBwMR8-90">
          <mxGeometry relative="1" as="geometry" />
        </mxCell>
        <mxCell id="ylwynmjivRgucbpBwMR8-94" style="edgeStyle=orthogonalEdgeStyle;rounded=0;orthogonalLoop=1;jettySize=auto;html=1;exitX=1;exitY=0.5;exitDx=0;exitDy=0;fontSize=12;startSize=8;endSize=8;dashed=1;" edge="1" parent="1" source="ylwynmjivRgucbpBwMR8-15" target="ylwynmjivRgucbpBwMR8-5">
          <mxGeometry relative="1" as="geometry" />
        </mxCell>
        <mxCell id="ylwynmjivRgucbpBwMR8-95" value="&lt;font style=&quot;font-size: 12px;&quot;&gt;分类序列&lt;span style=&quot;background-color: rgb(251, 251, 251);&quot;&gt;对应物种&lt;/span&gt;&lt;/font&gt;" style="edgeLabel;html=1;align=center;verticalAlign=middle;resizable=0;points=[];fontSize=16;container=0;" vertex="1" connectable="0" parent="ylwynmjivRgucbpBwMR8-94">
          <mxGeometry x="-0.5152" relative="1" as="geometry">
            <mxPoint as="offset" />
          </mxGeometry>
        </mxCell>
        <mxCell id="ylwynmjivRgucbpBwMR8-96" style="edgeStyle=orthogonalEdgeStyle;rounded=0;orthogonalLoop=1;jettySize=auto;html=1;exitX=0.5;exitY=1;exitDx=0;exitDy=0;entryX=0.75;entryY=0;entryDx=0;entryDy=0;" edge="1" parent="1" source="ylwynmjivRgucbpBwMR8-97" target="ylwynmjivRgucbpBwMR8-107">
          <mxGeometry relative="1" as="geometry" />
        </mxCell>
        <mxCell id="ylwynmjivRgucbpBwMR8-97" value="蛋白marker序列" style="rounded=0;whiteSpace=wrap;html=1;container=0;" vertex="1" parent="1">
          <mxGeometry x="1853" y="-108" width="120" height="20" as="geometry" />
        </mxCell>
        <mxCell id="ylwynmjivRgucbpBwMR8-98" style="edgeStyle=orthogonalEdgeStyle;rounded=0;orthogonalLoop=1;jettySize=auto;html=1;entryX=1;entryY=0.5;entryDx=0;entryDy=0;strokeWidth=3;" edge="1" parent="1" source="ylwynmjivRgucbpBwMR8-100" target="ylwynmjivRgucbpBwMR8-21">
          <mxGeometry relative="1" as="geometry" />
        </mxCell>
        <mxCell id="ylwynmjivRgucbpBwMR8-99" style="edgeStyle=orthogonalEdgeStyle;rounded=0;orthogonalLoop=1;jettySize=auto;html=1;exitX=0;exitY=0.5;exitDx=0;exitDy=0;entryX=1;entryY=0.5;entryDx=0;entryDy=0;" edge="1" parent="1" source="ylwynmjivRgucbpBwMR8-100" target="ylwynmjivRgucbpBwMR8-55">
          <mxGeometry relative="1" as="geometry" />
        </mxCell>
        <mxCell id="ylwynmjivRgucbpBwMR8-100" value="Query ASVs" style="rounded=1;whiteSpace=wrap;html=1;container=0;" vertex="1" parent="1">
          <mxGeometry x="3097" y="673" width="120" height="30" as="geometry" />
        </mxCell>
        <mxCell id="ylwynmjivRgucbpBwMR8-101" style="edgeStyle=orthogonalEdgeStyle;rounded=0;orthogonalLoop=1;jettySize=auto;html=1;exitX=0.5;exitY=0;exitDx=0;exitDy=0;entryX=0;entryY=0.5;entryDx=0;entryDy=0;dashed=1;" edge="1" parent="1" source="ylwynmjivRgucbpBwMR8-54" target="ylwynmjivRgucbpBwMR8-3">
          <mxGeometry relative="1" as="geometry" />
        </mxCell>
        <mxCell id="ylwynmjivRgucbpBwMR8-102" style="edgeStyle=orthogonalEdgeStyle;rounded=0;orthogonalLoop=1;jettySize=auto;html=1;exitX=0.5;exitY=0;exitDx=0;exitDy=0;entryX=0;entryY=0.5;entryDx=0;entryDy=0;dashed=1;" edge="1" parent="1" source="ylwynmjivRgucbpBwMR8-54" target="ylwynmjivRgucbpBwMR8-6">
          <mxGeometry relative="1" as="geometry" />
        </mxCell>
        <mxCell id="ylwynmjivRgucbpBwMR8-103" style="edgeStyle=orthogonalEdgeStyle;rounded=0;orthogonalLoop=1;jettySize=auto;html=1;exitX=0.5;exitY=0;exitDx=0;exitDy=0;entryX=0;entryY=0.5;entryDx=0;entryDy=0;dashed=1;" edge="1" parent="1" source="ylwynmjivRgucbpBwMR8-54" target="ylwynmjivRgucbpBwMR8-7">
          <mxGeometry relative="1" as="geometry" />
        </mxCell>
        <mxCell id="ylwynmjivRgucbpBwMR8-104" value="二次物种注释" style="rounded=1;whiteSpace=wrap;html=1;container=0;" vertex="1" parent="1">
          <mxGeometry x="1798" y="672" width="90" height="31" as="geometry" />
        </mxCell>
        <mxCell id="ylwynmjivRgucbpBwMR8-105" style="edgeStyle=orthogonalEdgeStyle;rounded=0;orthogonalLoop=1;jettySize=auto;html=1;exitX=0;exitY=0.5;exitDx=0;exitDy=0;entryX=1;entryY=0.5;entryDx=0;entryDy=0;strokeWidth=3;" edge="1" parent="1" source="ylwynmjivRgucbpBwMR8-21" target="ylwynmjivRgucbpBwMR8-104">
          <mxGeometry relative="1" as="geometry" />
        </mxCell>
        <mxCell id="ylwynmjivRgucbpBwMR8-106" style="edgeStyle=orthogonalEdgeStyle;rounded=0;orthogonalLoop=1;jettySize=auto;html=1;exitX=0;exitY=0.5;exitDx=0;exitDy=0;entryX=1;entryY=0.5;entryDx=0;entryDy=0;dashed=1;strokeWidth=3;" edge="1" parent="1" source="ylwynmjivRgucbpBwMR8-56" target="ylwynmjivRgucbpBwMR8-100">
          <mxGeometry relative="1" as="geometry">
            <mxPoint x="3303" y="688" as="sourcePoint" />
          </mxGeometry>
        </mxCell>
        <mxCell id="ylwynmjivRgucbpBwMR8-107" value="从门到属各水平分类单元拆分数据进行处理" style="rounded=1;whiteSpace=wrap;html=1;fontStyle=1;container=0;" vertex="1" parent="1">
          <mxGeometry x="1703" y="13.5" width="280" height="39" as="geometry" />
        </mxCell>
        <mxCell id="ylwynmjivRgucbpBwMR8-108" style="edgeStyle=orthogonalEdgeStyle;rounded=0;orthogonalLoop=1;jettySize=auto;html=1;exitX=0.25;exitY=1;exitDx=0;exitDy=0;entryX=0.5;entryY=0;entryDx=0;entryDy=0;dashed=1;" edge="1" parent="1" source="ylwynmjivRgucbpBwMR8-107" target="ylwynmjivRgucbpBwMR8-125">
          <mxGeometry relative="1" as="geometry" />
        </mxCell>
        <mxCell id="ylwynmjivRgucbpBwMR8-109" style="edgeStyle=orthogonalEdgeStyle;rounded=0;orthogonalLoop=1;jettySize=auto;html=1;exitX=0.75;exitY=1;exitDx=0;exitDy=0;entryX=0.5;entryY=0;entryDx=0;entryDy=0;" edge="1" parent="1" source="ylwynmjivRgucbpBwMR8-107" target="ylwynmjivRgucbpBwMR8-123">
          <mxGeometry relative="1" as="geometry" />
        </mxCell>
        <mxCell id="ylwynmjivRgucbpBwMR8-110" style="edgeStyle=orthogonalEdgeStyle;rounded=0;orthogonalLoop=1;jettySize=auto;html=1;exitX=0;exitY=0.5;exitDx=0;exitDy=0;entryX=0.5;entryY=0;entryDx=0;entryDy=0;" edge="1" parent="1" source="ylwynmjivRgucbpBwMR8-64" target="ylwynmjivRgucbpBwMR8-97">
          <mxGeometry relative="1" as="geometry" />
        </mxCell>
        <mxCell id="ylwynmjivRgucbpBwMR8-111" value="GTDBtk提取保守蛋白标记&lt;br style=&quot;border-color: var(--border-color);&quot;&gt;细菌120个 古菌53个" style="edgeLabel;html=1;align=center;verticalAlign=middle;resizable=0;points=[];container=0;" vertex="1" connectable="0" parent="ylwynmjivRgucbpBwMR8-110">
          <mxGeometry x="0.2967" y="4" relative="1" as="geometry">
            <mxPoint x="86" y="-6" as="offset" />
          </mxGeometry>
        </mxCell>
        <mxCell id="ylwynmjivRgucbpBwMR8-112" style="edgeStyle=orthogonalEdgeStyle;rounded=0;orthogonalLoop=1;jettySize=auto;html=1;exitX=0;exitY=0.5;exitDx=0;exitDy=0;entryX=0.75;entryY=0;entryDx=0;entryDy=0;" edge="1" parent="1" source="ylwynmjivRgucbpBwMR8-17" target="ylwynmjivRgucbpBwMR8-107">
          <mxGeometry relative="1" as="geometry" />
        </mxCell>
        <mxCell id="ylwynmjivRgucbpBwMR8-113" style="edgeStyle=orthogonalEdgeStyle;rounded=0;orthogonalLoop=1;jettySize=auto;html=1;exitX=0;exitY=0.5;exitDx=0;exitDy=0;entryX=1;entryY=0.5;entryDx=0;entryDy=0;" edge="1" parent="1" source="ylwynmjivRgucbpBwMR8-114" target="ylwynmjivRgucbpBwMR8-118">
          <mxGeometry relative="1" as="geometry" />
        </mxCell>
        <mxCell id="ylwynmjivRgucbpBwMR8-114" value="未注释到种/属水平序列" style="rounded=1;whiteSpace=wrap;html=1;container=0;" vertex="1" parent="1">
          <mxGeometry x="1937" y="524" width="132" height="28" as="geometry" />
        </mxCell>
        <mxCell id="ylwynmjivRgucbpBwMR8-115" style="edgeStyle=orthogonalEdgeStyle;rounded=0;orthogonalLoop=1;jettySize=auto;html=1;exitX=0;exitY=0.5;exitDx=0;exitDy=0;entryX=0.5;entryY=1;entryDx=0;entryDy=0;" edge="1" parent="1" source="ylwynmjivRgucbpBwMR8-21" target="ylwynmjivRgucbpBwMR8-114">
          <mxGeometry relative="1" as="geometry" />
        </mxCell>
        <mxCell id="ylwynmjivRgucbpBwMR8-116" style="edgeStyle=orthogonalEdgeStyle;rounded=0;orthogonalLoop=1;jettySize=auto;html=1;exitX=0.5;exitY=1;exitDx=0;exitDy=0;entryX=0.5;entryY=0;entryDx=0;entryDy=0;" edge="1" parent="1" source="ylwynmjivRgucbpBwMR8-118" target="ylwynmjivRgucbpBwMR8-130">
          <mxGeometry relative="1" as="geometry">
            <mxPoint x="1761" y="670" as="targetPoint" />
          </mxGeometry>
        </mxCell>
        <mxCell id="ylwynmjivRgucbpBwMR8-117" style="edgeStyle=orthogonalEdgeStyle;rounded=0;orthogonalLoop=1;jettySize=auto;html=1;exitX=0.5;exitY=1;exitDx=0;exitDy=0;" edge="1" parent="1" source="ylwynmjivRgucbpBwMR8-118" target="ylwynmjivRgucbpBwMR8-129">
          <mxGeometry relative="1" as="geometry" />
        </mxCell>
        <mxCell id="ylwynmjivRgucbpBwMR8-118" value="系统发育树序列插入" style="rounded=0;whiteSpace=wrap;html=1;container=0;" vertex="1" parent="1">
          <mxGeometry x="1783" y="524" width="120" height="28" as="geometry" />
        </mxCell>
        <mxCell id="ylwynmjivRgucbpBwMR8-119" style="edgeStyle=orthogonalEdgeStyle;rounded=0;orthogonalLoop=1;jettySize=auto;html=1;exitX=0.5;exitY=1;exitDx=0;exitDy=0;entryX=0.5;entryY=0;entryDx=0;entryDy=0;" edge="1" parent="1" source="ylwynmjivRgucbpBwMR8-122" target="ylwynmjivRgucbpBwMR8-118">
          <mxGeometry relative="1" as="geometry" />
        </mxCell>
        <mxCell id="ylwynmjivRgucbpBwMR8-120" style="edgeStyle=orthogonalEdgeStyle;rounded=0;orthogonalLoop=1;jettySize=auto;html=1;exitX=0.5;exitY=1;exitDx=0;exitDy=0;entryX=0.5;entryY=0;entryDx=0;entryDy=0;fillColor=#e1d5e7;strokeColor=#9673a6;strokeWidth=2;" edge="1" parent="1" source="ylwynmjivRgucbpBwMR8-129" target="ylwynmjivRgucbpBwMR8-104">
          <mxGeometry relative="1" as="geometry">
            <mxPoint x="1841" y="673" as="targetPoint" />
          </mxGeometry>
        </mxCell>
        <mxCell id="ylwynmjivRgucbpBwMR8-121" style="edgeStyle=orthogonalEdgeStyle;rounded=0;orthogonalLoop=1;jettySize=auto;html=1;exitX=0.5;exitY=1;exitDx=0;exitDy=0;entryX=0.5;entryY=0;entryDx=0;entryDy=0;fillColor=#e1d5e7;strokeColor=#9673a6;strokeWidth=2;" edge="1" parent="1" source="ylwynmjivRgucbpBwMR8-130" target="ylwynmjivRgucbpBwMR8-104">
          <mxGeometry relative="1" as="geometry" />
        </mxCell>
        <mxCell id="ylwynmjivRgucbpBwMR8-122" value="" style="rounded=1;whiteSpace=wrap;html=1;container=0;" vertex="1" parent="1">
          <mxGeometry x="1703" y="229" width="280" height="118" as="geometry" />
        </mxCell>
        <mxCell id="ylwynmjivRgucbpBwMR8-123" value="16s多序列比对" style="rounded=0;whiteSpace=wrap;html=1;container=0;" vertex="1" parent="1">
          <mxGeometry x="1853" y="274" width="120" height="20" as="geometry" />
        </mxCell>
        <mxCell id="ylwynmjivRgucbpBwMR8-124" value="隐马尔可夫模型" style="rounded=0;whiteSpace=wrap;html=1;container=0;" vertex="1" parent="1">
          <mxGeometry x="1853" y="315" width="120" height="20" as="geometry" />
        </mxCell>
        <mxCell id="ylwynmjivRgucbpBwMR8-125" value="系统发育树" style="rounded=0;whiteSpace=wrap;html=1;container=0;" vertex="1" parent="1">
          <mxGeometry x="1713" y="274" width="120" height="20" as="geometry" />
        </mxCell>
        <mxCell id="ylwynmjivRgucbpBwMR8-126" value="系统发育树最佳参数" style="rounded=0;whiteSpace=wrap;html=1;container=0;" vertex="1" parent="1">
          <mxGeometry x="1713" y="315" width="120" height="20" as="geometry" />
        </mxCell>
        <mxCell id="ylwynmjivRgucbpBwMR8-127" style="edgeStyle=orthogonalEdgeStyle;rounded=0;orthogonalLoop=1;jettySize=auto;html=1;exitX=0.5;exitY=1;exitDx=0;exitDy=0;entryX=0.5;entryY=0;entryDx=0;entryDy=0;" edge="1" parent="1" source="ylwynmjivRgucbpBwMR8-123" target="ylwynmjivRgucbpBwMR8-124">
          <mxGeometry relative="1" as="geometry" />
        </mxCell>
        <mxCell id="ylwynmjivRgucbpBwMR8-128" style="edgeStyle=orthogonalEdgeStyle;rounded=0;orthogonalLoop=1;jettySize=auto;html=1;exitX=0.5;exitY=1;exitDx=0;exitDy=0;entryX=0.5;entryY=0;entryDx=0;entryDy=0;" edge="1" parent="1" source="ylwynmjivRgucbpBwMR8-125" target="ylwynmjivRgucbpBwMR8-126">
          <mxGeometry relative="1" as="geometry" />
        </mxCell>
        <mxCell id="ylwynmjivRgucbpBwMR8-129" value="根据进化距离划分物种" style="rounded=0;whiteSpace=wrap;html=1;container=0;" vertex="1" parent="1">
          <mxGeometry x="1856" y="608" width="133" height="29" as="geometry" />
        </mxCell>
        <mxCell id="ylwynmjivRgucbpBwMR8-130" value="根据近缘种确定新名" style="rounded=0;whiteSpace=wrap;html=1;container=0;" vertex="1" parent="1">
          <mxGeometry x="1698" y="608" width="133" height="29" as="geometry" />
        </mxCell>
        <mxCell id="ylwynmjivRgucbpBwMR8-131" style="edgeStyle=orthogonalEdgeStyle;rounded=0;orthogonalLoop=1;jettySize=auto;html=1;exitX=0.5;exitY=1;exitDx=0;exitDy=0;entryX=0;entryY=0.5;entryDx=0;entryDy=0;" edge="1" parent="1" source="ylwynmjivRgucbpBwMR8-132" target="ylwynmjivRgucbpBwMR8-125">
          <mxGeometry relative="1" as="geometry" />
        </mxCell>
        <mxCell id="ylwynmjivRgucbpBwMR8-132" value="蛋白序列比对建树" style="swimlane;whiteSpace=wrap;html=1;container=0;" vertex="1" parent="1">
          <mxGeometry x="1490" y="63" width="200" height="200" as="geometry" />
        </mxCell>
        <mxCell id="ylwynmjivRgucbpBwMR8-133" style="edgeStyle=orthogonalEdgeStyle;rounded=0;orthogonalLoop=1;jettySize=auto;html=1;exitX=0;exitY=0.5;exitDx=0;exitDy=0;entryX=0.5;entryY=0;entryDx=0;entryDy=0;" edge="1" parent="1" source="ylwynmjivRgucbpBwMR8-107" target="ylwynmjivRgucbpBwMR8-132">
          <mxGeometry relative="1" as="geometry" />
        </mxCell>
        <mxCell id="ylwynmjivRgucbpBwMR8-134" value="功能注释" style="rounded=1;whiteSpace=wrap;html=1;container=0;" vertex="1" parent="1">
          <mxGeometry x="1529" y="673" width="90" height="31" as="geometry" />
        </mxCell>
        <mxCell id="ylwynmjivRgucbpBwMR8-135" style="edgeStyle=orthogonalEdgeStyle;rounded=0;orthogonalLoop=1;jettySize=auto;html=1;exitX=0;exitY=0.5;exitDx=0;exitDy=0;entryX=0.5;entryY=0;entryDx=0;entryDy=0;" edge="1" parent="1" source="ylwynmjivRgucbpBwMR8-118" target="ylwynmjivRgucbpBwMR8-134">
          <mxGeometry relative="1" as="geometry" />
        </mxCell>
        <mxCell id="ylwynmjivRgucbpBwMR8-136" style="edgeStyle=orthogonalEdgeStyle;rounded=0;orthogonalLoop=1;jettySize=auto;html=1;exitX=0;exitY=0.5;exitDx=0;exitDy=0;entryX=1;entryY=0.5;entryDx=0;entryDy=0;strokeWidth=4;dashed=1;" edge="1" parent="1" source="ylwynmjivRgucbpBwMR8-104" target="ylwynmjivRgucbpBwMR8-134">
          <mxGeometry relative="1" as="geometry" />
        </mxCell>
        <mxCell id="ylwynmjivRgucbpBwMR8-137" value="mafft进行多序列比对" style="rounded=0;whiteSpace=wrap;html=1;fontSize=10;container=0;" vertex="1" parent="1">
          <mxGeometry x="1530" y="98.25" width="120" height="20" as="geometry" />
        </mxCell>
        <mxCell id="ylwynmjivRgucbpBwMR8-138" value="BMGE提取保守区域" style="rounded=0;whiteSpace=wrap;html=1;fontSize=10;container=0;" vertex="1" parent="1">
          <mxGeometry x="1530" y="143.75" width="120" height="20" as="geometry" />
        </mxCell>
        <mxCell id="ylwynmjivRgucbpBwMR8-139" value="保守区域拼接" style="rounded=0;whiteSpace=wrap;html=1;fontSize=10;container=0;" vertex="1" parent="1">
          <mxGeometry x="1530" y="188.75" width="120" height="20" as="geometry" />
        </mxCell>
        <mxCell id="ylwynmjivRgucbpBwMR8-140" value="Fasttree或iqtree建树" style="rounded=0;whiteSpace=wrap;html=1;fontSize=10;container=0;" vertex="1" parent="1">
          <mxGeometry x="1530" y="233.75" width="120" height="20" as="geometry" />
        </mxCell>
        <mxCell id="ylwynmjivRgucbpBwMR8-141" style="edgeStyle=orthogonalEdgeStyle;rounded=0;orthogonalLoop=1;jettySize=auto;html=1;exitX=0.5;exitY=1;exitDx=0;exitDy=0;entryX=0.5;entryY=0;entryDx=0;entryDy=0;" edge="1" parent="1" source="ylwynmjivRgucbpBwMR8-137" target="ylwynmjivRgucbpBwMR8-138">
          <mxGeometry relative="1" as="geometry" />
        </mxCell>
        <mxCell id="ylwynmjivRgucbpBwMR8-142" style="edgeStyle=orthogonalEdgeStyle;rounded=0;orthogonalLoop=1;jettySize=auto;html=1;exitX=0.5;exitY=1;exitDx=0;exitDy=0;entryX=0.5;entryY=0;entryDx=0;entryDy=0;" edge="1" parent="1" source="ylwynmjivRgucbpBwMR8-138" target="ylwynmjivRgucbpBwMR8-139">
          <mxGeometry relative="1" as="geometry" />
        </mxCell>
        <mxCell id="ylwynmjivRgucbpBwMR8-143" style="edgeStyle=orthogonalEdgeStyle;rounded=0;orthogonalLoop=1;jettySize=auto;html=1;exitX=0.5;exitY=1;exitDx=0;exitDy=0;entryX=0.5;entryY=0;entryDx=0;entryDy=0;" edge="1" parent="1" source="ylwynmjivRgucbpBwMR8-139" target="ylwynmjivRgucbpBwMR8-140">
          <mxGeometry relative="1" as="geometry" />
        </mxCell>
        <mxCell id="ylwynmjivRgucbpBwMR8-144" value="PICRSUt2 进化树插入参考文件" style="text;html=1;strokeColor=none;fillColor=none;align=center;verticalAlign=middle;whiteSpace=wrap;rounded=0;container=0;" vertex="1" parent="1">
          <mxGeometry x="1783" y="233" width="130" height="30" as="geometry" />
        </mxCell>
        <mxCell id="ylwynmjivRgucbpBwMR8-145" style="edgeStyle=orthogonalEdgeStyle;rounded=0;orthogonalLoop=1;jettySize=auto;html=1;exitX=0;exitY=0.5;exitDx=0;exitDy=0;entryX=0.5;entryY=0;entryDx=0;entryDy=0;fillColor=#dae8fc;strokeColor=#6c8ebf;strokeWidth=3;" edge="1" parent="1" source="ylwynmjivRgucbpBwMR8-146" target="ylwynmjivRgucbpBwMR8-168">
          <mxGeometry relative="1" as="geometry" />
        </mxCell>
        <mxCell id="ylwynmjivRgucbpBwMR8-146" value="模拟数据生成" style="swimlane;whiteSpace=wrap;html=1;fillColor=#dae8fc;strokeColor=#6c8ebf;strokeWidth=2;rounded=1;shadow=0;glass=0;sketch=1;curveFitting=1;jiggle=2;" vertex="1" parent="1">
          <mxGeometry x="990" y="30" width="460" height="235" as="geometry" />
        </mxCell>
        <mxCell id="ylwynmjivRgucbpBwMR8-147" value="" style="group;fontSize=10;" vertex="1" connectable="0" parent="ylwynmjivRgucbpBwMR8-146">
          <mxGeometry x="14" y="33" width="316" height="195" as="geometry" />
        </mxCell>
        <mxCell id="ylwynmjivRgucbpBwMR8-148" value="SILVA" style="rounded=0;whiteSpace=wrap;html=1;fontSize=10;container=0;fillColor=#dae8fc;strokeColor=#6c8ebf;" vertex="1" parent="ylwynmjivRgucbpBwMR8-147">
          <mxGeometry y="12" width="67.05387981742037" height="37.5" as="geometry" />
        </mxCell>
        <mxCell id="ylwynmjivRgucbpBwMR8-149" value="Refseq" style="rounded=0;whiteSpace=wrap;html=1;fontSize=10;container=0;fillColor=#dae8fc;strokeColor=#6c8ebf;" vertex="1" parent="ylwynmjivRgucbpBwMR8-147">
          <mxGeometry y="55" width="67.05387981742037" height="37.5" as="geometry" />
        </mxCell>
        <mxCell id="ylwynmjivRgucbpBwMR8-150" value="Greengene&lt;br&gt;2013" style="rounded=0;whiteSpace=wrap;html=1;fontSize=10;container=0;fillColor=#dae8fc;strokeColor=#6c8ebf;" vertex="1" parent="ylwynmjivRgucbpBwMR8-147">
          <mxGeometry y="98" width="67.05387981742037" height="37.5" as="geometry" />
        </mxCell>
        <mxCell id="ylwynmjivRgucbpBwMR8-151" value="Greengene&lt;br&gt;2022" style="rounded=0;whiteSpace=wrap;html=1;fontSize=10;container=0;fillColor=#dae8fc;strokeColor=#6c8ebf;" vertex="1" parent="ylwynmjivRgucbpBwMR8-147">
          <mxGeometry y="140.75" width="67.05387981742037" height="37.5" as="geometry" />
        </mxCell>
        <mxCell id="ylwynmjivRgucbpBwMR8-152" style="edgeStyle=orthogonalEdgeStyle;rounded=0;orthogonalLoop=1;jettySize=auto;html=1;fontSize=12;startSize=8;endSize=8;exitX=0.1;exitY=0.5;exitDx=0;exitDy=0;exitPerimeter=0;" edge="1" parent="ylwynmjivRgucbpBwMR8-147" source="ylwynmjivRgucbpBwMR8-154">
          <mxGeometry relative="1" as="geometry">
            <mxPoint x="180" y="96" as="targetPoint" />
            <mxPoint x="77.10507740812197" y="24.75" as="sourcePoint" />
          </mxGeometry>
        </mxCell>
        <mxCell id="ylwynmjivRgucbpBwMR8-153" value="&lt;font style=&quot;font-size: 12px;&quot;&gt;跨库共名物种&lt;/font&gt;" style="edgeLabel;html=1;align=center;verticalAlign=middle;resizable=0;points=[];fontSize=16;container=0;" vertex="1" connectable="0" parent="ylwynmjivRgucbpBwMR8-152">
          <mxGeometry x="0.0104" y="-1" relative="1" as="geometry">
            <mxPoint x="-6" y="-3" as="offset" />
          </mxGeometry>
        </mxCell>
        <mxCell id="ylwynmjivRgucbpBwMR8-154" value="" style="shape=curlyBracket;whiteSpace=wrap;html=1;rounded=1;flipH=1;labelPosition=right;verticalLabelPosition=middle;align=left;verticalAlign=middle;fontSize=16;rotation=0;size=0;container=0;" vertex="1" parent="ylwynmjivRgucbpBwMR8-147">
          <mxGeometry x="68.84381911439462" y="16.25" width="3.9929415086348876" height="160" as="geometry" />
        </mxCell>
        <mxCell id="ylwynmjivRgucbpBwMR8-155" value="" style="group" vertex="1" connectable="0" parent="ylwynmjivRgucbpBwMR8-147">
          <mxGeometry x="186" width="120" height="195" as="geometry" />
        </mxCell>
        <mxCell id="ylwynmjivRgucbpBwMR8-156" value="各种随机抽取10%" style="rounded=1;whiteSpace=wrap;html=1;" vertex="1" parent="ylwynmjivRgucbpBwMR8-155">
          <mxGeometry y="55.964125560538115" width="120" height="27.982062780269057" as="geometry" />
        </mxCell>
        <mxCell id="ylwynmjivRgucbpBwMR8-157" value="各种内最长16s序列" style="rounded=1;whiteSpace=wrap;html=1;" vertex="1" parent="ylwynmjivRgucbpBwMR8-155">
          <mxGeometry y="83.94618834080717" width="120" height="27.982062780269057" as="geometry" />
        </mxCell>
        <mxCell id="ylwynmjivRgucbpBwMR8-158" value="全局最高/低PPL30%" style="rounded=1;whiteSpace=wrap;html=1;" vertex="1" parent="ylwynmjivRgucbpBwMR8-155">
          <mxGeometry y="111.92825112107623" width="120" height="27.982062780269057" as="geometry" />
        </mxCell>
        <mxCell id="ylwynmjivRgucbpBwMR8-159" value="种内最高/低PPL30%" style="rounded=1;whiteSpace=wrap;html=1;" vertex="1" parent="ylwynmjivRgucbpBwMR8-155">
          <mxGeometry y="139.9103139013453" width="120" height="27.982062780269057" as="geometry" />
        </mxCell>
        <mxCell id="ylwynmjivRgucbpBwMR8-160" value="综合最高/低PPL30%" style="rounded=1;whiteSpace=wrap;html=1;" vertex="1" parent="ylwynmjivRgucbpBwMR8-155">
          <mxGeometry y="167.01793721973092" width="120" height="27.982062780269057" as="geometry" />
        </mxCell>
        <mxCell id="ylwynmjivRgucbpBwMR8-161" value="V4区聚类同种异簇" style="rounded=1;whiteSpace=wrap;html=1;" vertex="1" parent="ylwynmjivRgucbpBwMR8-155">
          <mxGeometry y="27.982062780269057" width="120" height="27.982062780269057" as="geometry" />
        </mxCell>
        <mxCell id="ylwynmjivRgucbpBwMR8-162" value="V4区聚类同簇异种" style="rounded=1;whiteSpace=wrap;html=1;" vertex="1" parent="ylwynmjivRgucbpBwMR8-155">
          <mxGeometry width="120" height="27.982062780269057" as="geometry" />
        </mxCell>
        <mxCell id="ylwynmjivRgucbpBwMR8-163" value="&lt;span style=&quot;font-size: 12px;&quot;&gt;对应16S&lt;br&gt;V4区序列&lt;/span&gt;" style="rounded=0;whiteSpace=wrap;html=1;fontSize=13;container=0;" vertex="1" parent="ylwynmjivRgucbpBwMR8-146">
          <mxGeometry x="361" y="111.75" width="90" height="37.5" as="geometry" />
        </mxCell>
        <mxCell id="ylwynmjivRgucbpBwMR8-164" style="edgeStyle=none;curved=1;rounded=0;orthogonalLoop=1;jettySize=auto;html=1;exitX=0.5;exitY=1;exitDx=0;exitDy=0;entryX=0.5;entryY=0;entryDx=0;entryDy=0;fontSize=12;startSize=8;endSize=8;" edge="1" parent="ylwynmjivRgucbpBwMR8-146" source="ylwynmjivRgucbpBwMR8-163" target="ylwynmjivRgucbpBwMR8-165">
          <mxGeometry relative="1" as="geometry" />
        </mxCell>
        <mxCell id="ylwynmjivRgucbpBwMR8-165" value="&lt;font style=&quot;font-size: 12px;&quot;&gt;art-illumina&lt;br&gt;模拟扩增子测序&lt;/font&gt;" style="rounded=0;whiteSpace=wrap;html=1;fontSize=13;container=0;" vertex="1" parent="ylwynmjivRgucbpBwMR8-146">
          <mxGeometry x="360" y="165" width="90" height="37.5" as="geometry" />
        </mxCell>
        <mxCell id="ylwynmjivRgucbpBwMR8-166" style="edgeStyle=orthogonalEdgeStyle;rounded=0;orthogonalLoop=1;jettySize=auto;html=1;exitX=1;exitY=0.5;exitDx=0;exitDy=0;entryX=0;entryY=0.5;entryDx=0;entryDy=0;" edge="1" parent="ylwynmjivRgucbpBwMR8-146" source="ylwynmjivRgucbpBwMR8-157" target="ylwynmjivRgucbpBwMR8-163">
          <mxGeometry relative="1" as="geometry" />
        </mxCell>
        <mxCell id="ylwynmjivRgucbpBwMR8-167" style="edgeStyle=orthogonalEdgeStyle;rounded=1;orthogonalLoop=1;jettySize=auto;html=1;exitX=0.5;exitY=1;exitDx=0;exitDy=0;entryX=0.5;entryY=0;entryDx=0;entryDy=0;fillColor=#e1d5e7;strokeColor=#9673a6;strokeWidth=4;" edge="1" parent="1" source="ylwynmjivRgucbpBwMR8-168" target="ylwynmjivRgucbpBwMR8-171">
          <mxGeometry relative="1" as="geometry" />
        </mxCell>
        <mxCell id="ylwynmjivRgucbpBwMR8-168" value="原始测序数据&lt;br&gt;（fastq/fastq.gz)" style="rounded=1;whiteSpace=wrap;html=1;container=0;strokeWidth=4;fillColor=#e1d5e7;strokeColor=#9673a6;" vertex="1" parent="1">
          <mxGeometry x="856" y="225" width="120" height="40" as="geometry" />
        </mxCell>
        <mxCell id="ylwynmjivRgucbpBwMR8-169" style="edgeStyle=orthogonalEdgeStyle;rounded=0;orthogonalLoop=1;jettySize=auto;html=1;exitX=0.5;exitY=1;exitDx=0;exitDy=0;entryX=0.5;entryY=0;entryDx=0;entryDy=0;strokeWidth=4;fillColor=#e1d5e7;strokeColor=#9673a6;" edge="1" parent="1" source="ylwynmjivRgucbpBwMR8-171" target="ylwynmjivRgucbpBwMR8-172">
          <mxGeometry relative="1" as="geometry" />
        </mxCell>
        <mxCell id="ylwynmjivRgucbpBwMR8-170" style="edgeStyle=orthogonalEdgeStyle;rounded=0;orthogonalLoop=1;jettySize=auto;html=1;exitX=1;exitY=0.5;exitDx=0;exitDy=0;fillColor=#dae8fc;strokeColor=#6c8ebf;strokeWidth=3;" edge="1" parent="1" source="ylwynmjivRgucbpBwMR8-171" target="ylwynmjivRgucbpBwMR8-179">
          <mxGeometry relative="1" as="geometry" />
        </mxCell>
        <mxCell id="ylwynmjivRgucbpBwMR8-171" value="Qiime2数据预处理" style="rounded=1;whiteSpace=wrap;html=1;container=0;strokeWidth=4;fillColor=#e1d5e7;strokeColor=#9673a6;" vertex="1" parent="1">
          <mxGeometry x="856" y="295" width="120" height="40" as="geometry" />
        </mxCell>
        <mxCell id="ylwynmjivRgucbpBwMR8-172" value="初步注释" style="rounded=1;whiteSpace=wrap;html=1;container=0;strokeWidth=4;fillColor=#e1d5e7;strokeColor=#9673a6;" vertex="1" parent="1">
          <mxGeometry x="856" y="369" width="120" height="40" as="geometry" />
        </mxCell>
        <mxCell id="ylwynmjivRgucbpBwMR8-173" value="待比较数据来源" style="swimlane;childLayout=stackLayout;horizontal=1;startSize=26;horizontalStack=0;rounded=1;fontSize=14;fontStyle=0;strokeWidth=2;resizeParent=0;resizeLast=1;shadow=0;dashed=0;align=center;arcSize=4;whiteSpace=wrap;html=1;fillColor=#dae8fc;strokeColor=#6c8ebf;sketch=1;curveFitting=1;jiggle=2;" vertex="1" parent="1">
          <mxGeometry x="1234" y="399" width="220" height="115" as="geometry">
            <mxRectangle x="1170" y="335" width="140" height="30" as="alternateBounds" />
          </mxGeometry>
        </mxCell>
        <mxCell id="ylwynmjivRgucbpBwMR8-174" value="&lt;div style=&quot;&quot;&gt;&lt;div style=&quot;&quot;&gt;&lt;div style=&quot;&quot;&gt;&lt;ul&gt;&lt;li&gt;SILVA数据库&lt;br&gt;&lt;/li&gt;&lt;li&gt;Refseq数据库&lt;br&gt;&lt;/li&gt;&lt;li&gt;Greengenes13数据库&lt;br&gt;&lt;/li&gt;&lt;li&gt;Greengenes22数据库&lt;br&gt;&lt;/li&gt;&lt;/ul&gt;&lt;/div&gt;&lt;/div&gt;&lt;/div&gt;" style="align=left;strokeColor=none;fillColor=none;spacingLeft=4;fontSize=12;verticalAlign=top;resizable=0;rotatable=0;part=1;html=1;" vertex="1" parent="ylwynmjivRgucbpBwMR8-173">
          <mxGeometry y="26" width="220" height="89" as="geometry" />
        </mxCell>
        <mxCell id="ylwynmjivRgucbpBwMR8-175" value="待比较分类方法" style="swimlane;childLayout=stackLayout;horizontal=1;startSize=26;horizontalStack=0;rounded=1;fontSize=14;fontStyle=0;strokeWidth=2;resizeParent=0;resizeLast=1;shadow=0;dashed=0;align=center;arcSize=4;whiteSpace=wrap;html=1;fillColor=#dae8fc;strokeColor=#6c8ebf;sketch=1;curveFitting=1;jiggle=2;" vertex="1" parent="1">
          <mxGeometry x="1234" y="528" width="220" height="126" as="geometry">
            <mxRectangle x="1170" y="464" width="140" height="30" as="alternateBounds" />
          </mxGeometry>
        </mxCell>
        <mxCell id="ylwynmjivRgucbpBwMR8-176" value="&lt;div style=&quot;&quot;&gt;&lt;div style=&quot;&quot;&gt;&lt;ul&gt;&lt;li&gt;BLAST分类器&lt;/li&gt;&lt;li&gt;SPINGO分类算法&lt;/li&gt;&lt;li&gt;VSEARCH分类算法&lt;/li&gt;&lt;li&gt;贝叶斯分类方法&lt;/li&gt;&lt;li&gt;神经网络方法&lt;/li&gt;&lt;/ul&gt;&lt;/div&gt;&lt;/div&gt;" style="align=left;strokeColor=none;fillColor=none;spacingLeft=4;fontSize=12;verticalAlign=top;resizable=0;rotatable=0;part=1;html=1;" vertex="1" parent="ylwynmjivRgucbpBwMR8-175">
          <mxGeometry y="26" width="220" height="100" as="geometry" />
        </mxCell>
        <mxCell id="ylwynmjivRgucbpBwMR8-177" value="待比较优化策略" style="swimlane;childLayout=stackLayout;horizontal=1;startSize=26;horizontalStack=0;rounded=1;fontSize=14;fontStyle=0;strokeWidth=2;resizeParent=0;resizeLast=1;shadow=0;dashed=0;align=center;arcSize=4;whiteSpace=wrap;html=1;fillColor=#dae8fc;strokeColor=#6c8ebf;sketch=1;curveFitting=1;jiggle=2;" vertex="1" parent="1">
          <mxGeometry x="1234" y="667" width="220" height="82" as="geometry" />
        </mxCell>
        <mxCell id="ylwynmjivRgucbpBwMR8-178" value="&lt;div style=&quot;&quot;&gt;&lt;div style=&quot;&quot;&gt;&lt;ul&gt;&lt;li&gt;是否构建超种（SupraSpecies）&lt;/li&gt;&lt;li&gt;是否利用系统发育树&lt;/li&gt;&lt;/ul&gt;&lt;/div&gt;&lt;/div&gt;" style="align=left;strokeColor=none;fillColor=none;spacingLeft=4;fontSize=12;verticalAlign=top;resizable=0;rotatable=0;part=1;html=1;" vertex="1" parent="ylwynmjivRgucbpBwMR8-177">
          <mxGeometry y="26" width="220" height="56" as="geometry" />
        </mxCell>
        <mxCell id="ylwynmjivRgucbpBwMR8-179" value="注释方法比较" style="rounded=1;whiteSpace=wrap;html=1;container=0;strokeWidth=4;fillColor=#dae8fc;strokeColor=#6c8ebf;" vertex="1" parent="1">
          <mxGeometry x="1050" y="369" width="120" height="40" as="geometry" />
        </mxCell>
      </root>
    </mxGraphModel>
  </diagram>
</mxfile>
